<?xml version="1.0" encoding="UTF-8"?><svg id="b" xmlns="http://www.w3.org/2000/svg" width="182.86" height="205.89" viewBox="0 0 182.86 205.89"><g id="c"><path d="M91.52,24.17c-5.41-.16-10.75.52-15.83,1.82-2.54.68-5.01,1.51-7.39,2.49-2.37,1.02-4.69,2.11-6.85,3.41-4.38,2.52-8.29,5.64-11.72,9.04-3.38,3.45-6.32,7.18-8.64,11.13-2.33,3.94-4.14,8.02-5.43,12.11-1.27,4.09-2.03,8.17-2.38,12.12-.08.99-.17,1.96-.18,2.93-.03.97-.08,1.93-.02,2.87.03.95.06,1.88.09,2.8.03.92.18,1.83.26,2.72.14,1.8.5,3.52.8,5.19.12.84.37,1.65.57,2.45.27,1.03.53,2.04.79,3.04-5.73-.04-10.87-.08-15.35-.11-4.29-.05-7.96-.09-10.94-.13-2.98-.06-5.28-.11-6.84-.14-1.55-.05-2.36-.1-2.36-.15s.81-.1,2.36-.15c1.55-.03,3.85-.08,6.84-.14,5.81-.06,14.28-.14,24.94-.24-.15-.57-.31-1.14-.47-1.73-.21-.82-.47-1.63-.61-2.49-.32-1.71-.72-3.46-.87-5.29-.09-.91-.25-1.83-.29-2.78-.04-.94-.08-1.9-.12-2.86-.07-.96-.03-1.94,0-2.93,0-.99.08-1.99.16-3,.31-4.03,1.06-8.22,2.34-12.42,1.29-4.19,3.12-8.39,5.49-12.44,2.35-4.06,5.35-7.9,8.81-11.46,3.51-3.5,7.51-6.72,12.01-9.33,2.22-1.35,4.61-2.47,7.04-3.52,2.45-1.01,4.99-1.87,7.6-2.57,5.22-1.34,10.72-2.04,16.28-1.88,5.36.1,10.62,1,15.61,2.49,4.97,1.53,9.68,3.67,13.93,6.36,4.26,2.67,8.09,5.82,11.39,9.33,3.33,3.48,6.11,7.3,8.37,11.27,4.56,7.93,6.86,16.45,7.44,24.37.08.99.14,1.97.15,2.95.03.97.05,1.94-.01,2.89-.04.95-.08,1.89-.12,2.83-.06.93-.2,1.84-.29,2.75-.16,1.82-.55,3.55-.87,5.25-.14.86-.4,1.67-.61,2.49-.16.58-.31,1.15-.47,1.71,11.42.11,20.56.19,26.84.25,3.22.06,5.71.11,7.39.14,1.68.05,2.56.1,2.56.15s-.88.1-2.56.15c-1.69.03-4.17.08-7.39.14-3.22.04-7.18.08-11.79.13-4.82.03-10.33.07-16.45.12.26-1.01.52-2.03.79-3.06.2-.8.44-1.6.57-2.44.29-1.67.66-3.37.8-5.16.08-.89.22-1.78.26-2.69.03-.91.06-1.83.09-2.77.05-.93.02-1.88-.01-2.83,0-.95-.08-1.91-.17-2.88-.64-7.74-2.93-16.04-7.42-23.75-2.22-3.86-4.95-7.57-8.2-10.94-3.22-3.4-6.97-6.46-11.12-9.05-4.14-2.6-8.72-4.67-13.56-6.16-4.85-1.45-9.97-2.32-15.18-2.42Z" style="fill:silver;"/><path d="M91.35,157.28c25.25,0,48.11.09,64.65.24,8.27.07,14.96.16,19.59.26,2.31.05,4.11.1,5.33.15,1.22.05,1.86.11,1.86.16s-.64.11-1.86.16c-1.22.05-3.01.1-5.33.15-4.63.1-11.32.18-19.59.26-16.54.15-39.4.24-64.65.24s-48.05-.09-64.58-.24c-8.27-.07-14.96-.16-19.58-.26-2.31-.05-4.11-.1-5.33-.15-1.22-.05-1.86-.11-1.86-.16s.64-.11,1.86-.16c1.22-.05,3.01-.1,5.33-.15,4.62-.1,11.32-.18,19.58-.26,16.53-.15,39.37-.24,64.58-.24Z" style="fill:silver;"/><path d="M41.23,132.27c-.47-.11-.95-.18-1.46-.19-4.15-.05-7.79,2.96-11.97,1.22,0,0,5.54,9,11.74,8.47,2.95-.25,4.75-1.5,5.84-2.73l-.11-.08c-.16-.13-3.53-2.86-4.04-6.68Z" style="fill:silver;"/><path d="M43.78,119.14s8.68,6.03,7.79,12.2c-.88,6.16-5.85,7.04-5.85,7.04,0,0-4.02-3.21-3.83-7.36.19-4.15,3.39-7.61,1.89-11.88Z" style="fill:silver;"/><path d="M33.47,123.97c-.42-.13-.86-.21-1.32-.25-3.79-.25-7.26,2.31-10.99.5,0,0,4.6,8.5,10.29,8.33,2.71-.08,4.41-1.13,5.47-2.2l-.09-.08c-.14-.12-3.08-2.8-3.35-6.31Z" style="fill:silver;"/><path d="M36.47,112.1s7.62,5.95,6.5,11.53c-1.12,5.58-5.7,6.14-5.7,6.14,0,0-3.51-3.13-3.13-6.91.38-3.78,3.49-6.77,2.33-10.76Z" style="fill:silver;"/><path d="M26.51,115.14c-.36-.2-.74-.36-1.16-.48-3.4-.97-7.06.68-10.1-1.7,0,0,2.52,8.63,7.73,9.59,2.48.46,4.24-.16,5.41-.93l-.07-.09c-.1-.14-2.25-3.14-1.81-6.39Z" style="fill:silver;"/><path d="M31.56,104.93s5.76,6.91,3.65,11.77c-2.11,4.86-6.38,4.46-6.38,4.46,0,0-2.58-3.54-1.49-6.9,1.09-3.36,4.5-5.48,4.22-9.33Z" style="fill:silver;"/><path d="M21.03,105.73c-.32-.26-.66-.49-1.05-.69-3.17-1.57-7.06-.61-9.62-3.5,0,0,.91,8.95,5.86,10.83,2.36.9,4.2.61,5.48.07l-.05-.1c-.08-.16-1.64-3.5-.63-6.61Z" style="fill:silver;"/><path d="M27.85,96.61s4.41,7.84,1.46,12.23c-2.96,4.4-7.09,3.23-7.09,3.23,0,0-1.9-3.95-.22-7.06,1.68-3.11,5.42-4.57,5.84-8.41Z" style="fill:silver;"/><path d="M17.88,95.69c-.28-.29-.58-.57-.94-.81-2.89-1.95-6.82-1.52-8.95-4.67,0,0-.27,8.86,4.32,11.35,2.19,1.19,4.02,1.14,5.35.78l-.03-.11c-.05-.16-1.15-3.63.25-6.54Z" style="fill:silver;"/><path d="M25.73,87.66s3.3,8.23-.16,12.15c-3.46,3.91-7.35,2.24-7.35,2.24,0,0-1.34-4.1.71-6.92,2.05-2.82,5.89-3.76,6.81-7.46Z" style="fill:silver;"/><path d="M15.42,84.71c-.23-.33-.5-.64-.82-.92-2.6-2.32-6.56-2.42-8.24-5.84,0,0-1.46,8.74,2.75,11.83,2.01,1.47,3.83,1.67,5.2,1.49l-.02-.11c-.03-.17-.65-3.76,1.13-6.45Z" style="fill:silver;"/><path d="M24.28,77.81s2.16,8.6-1.8,12.01c-3.96,3.41-7.58,1.23-7.58,1.23,0,0-.77-4.25,1.63-6.77,2.41-2.52,6.34-2.94,7.75-6.47Z" style="fill:silver;"/><path d="M15.87,73.69c-.18-.36-.41-.71-.68-1.03-2.24-2.67-6.14-3.33-7.32-6.95,0,0-2.7,8.45,1.04,12.1,1.78,1.74,3.55,2.2,4.93,2.22v-.11c-.01-.17-.11-3.81,2.03-6.22Z" style="fill:silver;"/><path d="M25.62,68.13s.91,8.82-3.5,11.63c-4.4,2.81-7.68.13-7.68.13,0,0-.16-4.31,2.58-6.46,2.74-2.15,6.7-2,8.59-5.3Z" style="fill:silver;"/><path d="M16.28,62.62c-.12-.39-.28-.77-.49-1.13-1.76-3.01-5.49-4.33-6.03-8.1,0,0-4.09,7.86-1.04,12.1,1.45,2.02,3.13,2.77,4.48,3.03v-.11c.04-.17.56-3.77,3.08-5.79Z" style="fill:silver;"/><path d="M26.83,58.8s-.61,8.85-5.42,10.87c-4.82,2.02-7.59-1.18-7.59-1.18,0,0,.58-4.28,3.64-5.93,3.07-1.65,6.94-.83,9.37-3.76Z" style="fill:silver;"/><path d="M19.65,51.5c-.06-.4-.15-.8-.3-1.2-1.25-3.25-4.72-5.15-4.66-8.96,0,0-5.3,7.11-2.97,11.78,1.11,2.22,2.64,3.24,3.94,3.7l.03-.11c.05-.16,1.14-3.64,3.96-5.22Z" style="fill:silver;"/><path d="M30.68,49.42s-2.02,8.63-7.1,9.86c-5.08,1.22-7.3-2.38-7.3-2.38,0,0,1.25-4.13,4.55-5.27,3.3-1.14,6.98.29,9.85-2.21Z" style="fill:silver;"/><path d="M24.74,41.95c-.05-.4-.13-.8-.28-1.2-1.17-3.28-4.6-5.26-4.45-9.06,0,0-5.47,6.98-3.24,11.7,1.06,2.25,2.56,3.3,3.85,3.8l.03-.11c.05-.16,1.23-3.61,4.08-5.13Z" style="fill:silver;"/><path d="M35.82,40.13s-2.22,8.58-7.33,9.69c-5.11,1.1-7.25-2.55-7.25-2.55,0,0,1.35-4.1,4.67-5.16,3.32-1.06,6.98.46,9.9-1.98Z" style="fill:silver;"/><path d="M30.08,31.99c.09-.39.15-.8.15-1.23,0-3.48-2.56-6.51-1.13-10.03,0,0-7.5,4.73-7,9.93.24,2.47,1.3,3.97,2.35,4.87l.07-.09c.1-.13,2.37-2.98,5.57-3.45Z" style="fill:silver;"/><path d="M41.12,34.02s-4.99,7.33-10.16,6.65c-5.18-.68-5.96-4.84-5.96-4.84,0,0,2.66-3.41,6.14-3.28,3.48.12,6.41,2.78,9.99,1.48Z" style="fill:silver;"/><path d="M38,24.49c.13-.38.24-.78.28-1.2.4-3.46-1.8-6.75.02-10.09,0,0-7.99,3.85-8.08,9.07-.04,2.48.84,4.09,1.78,5.11l.08-.08c.12-.12,2.69-2.7,5.92-2.8Z" style="fill:silver;"/><path d="M48.74,27.75s-5.79,6.72-10.85,5.45c-5.07-1.27-5.37-5.49-5.37-5.49,0,0,3.02-3.08,6.47-2.57,3.45.52,6.06,3.49,9.76,2.6Z" style="fill:silver;"/><path d="M46.67,16.96c.18-.36.33-.74.43-1.16.81-3.39-.97-6.92,1.24-10.02,0,0-8.4,2.85-9.12,8.02-.34,2.46.34,4.16,1.14,5.29l.09-.07c.13-.11,3-2.35,6.22-2.06Z" style="fill:silver;"/><path d="M56.94,21.5s-6.56,5.97-11.43,4.09c-4.88-1.87-4.67-6.1-4.67-6.1,0,0,3.38-2.69,6.73-1.76,3.36.93,5.59,4.2,9.37,3.77Z" style="fill:silver;"/><path d="M56.09,10.85c.23-.33.43-.69.58-1.09,1.27-3.25-.02-6.99,2.59-9.76,0,0-8.7,1.68-10.13,6.7-.68,2.39-.23,4.17.42,5.39l.1-.06c.15-.09,3.29-1.92,6.44-1.19Z" style="fill:silver;"/><path d="M65.64,16.74s-7.31,5.02-11.88,2.5c-4.58-2.52-3.79-6.68-3.79-6.68,0,0,3.71-2.21,6.91-.83,3.2,1.38,4.96,4.92,8.77,5.01Z" style="fill:silver;"/><path d="M58.13,9.97c-.69-1.4-1.57-10.93,15.41-4.93,0,0-4.15,2.19-4.82,3.36-.67,1.18-7.29,8.29-10.59,1.57Z" style="fill:silver;"/><path d="M141.73,132.27c.47-.11.95-.18,1.46-.19,4.15-.05,7.79,2.96,11.97,1.22,0,0-5.54,9-11.74,8.47-2.95-.25-4.75-1.5-5.84-2.73l.11-.08c.16-.13,3.53-2.86,4.04-6.68Z" style="fill:silver;"/><path d="M139.18,119.14s-8.68,6.03-7.79,12.2c.88,6.16,5.85,7.04,5.85,7.04,0,0,4.02-3.21,3.83-7.36-.19-4.15-3.4-7.61-1.89-11.88Z" style="fill:silver;"/><path d="M149.48,123.97c.42-.13.86-.21,1.32-.25,3.79-.25,7.26,2.31,10.99.5,0,0-4.6,8.5-10.29,8.33-2.71-.08-4.41-1.13-5.47-2.2l.09-.08c.14-.12,3.08-2.8,3.35-6.31Z" style="fill:silver;"/><path d="M146.49,112.1s-7.62,5.95-6.5,11.53c1.12,5.58,5.7,6.14,5.7,6.14,0,0,3.51-3.13,3.13-6.91-.38-3.78-3.49-6.77-2.33-10.76Z" style="fill:silver;"/><path d="M156.45,115.14c.36-.2.74-.36,1.16-.48,3.4-.97,7.06.68,10.1-1.7,0,0-2.52,8.63-7.73,9.59-2.48.46-4.24-.16-5.41-.93l.07-.09c.1-.14,2.25-3.14,1.81-6.39Z" style="fill:silver;"/><path d="M151.4,104.93s-5.76,6.91-3.65,11.77c2.11,4.86,6.38,4.46,6.38,4.46,0,0,2.58-3.54,1.49-6.9-1.09-3.36-4.5-5.48-4.22-9.33Z" style="fill:silver;"/><path d="M161.92,105.73c.32-.26.66-.49,1.05-.69,3.17-1.57,7.06-.61,9.62-3.5,0,0-.91,8.95-5.86,10.83-2.36.9-4.2.61-5.48.07l.05-.1c.08-.16,1.64-3.5.63-6.61Z" style="fill:silver;"/><path d="M155.11,96.61s-4.41,7.84-1.46,12.23c2.96,4.4,7.09,3.23,7.09,3.23,0,0,1.9-3.95.22-7.06-1.68-3.11-5.42-4.57-5.84-8.41Z" style="fill:silver;"/><path d="M165.07,95.69c.28-.29.58-.57.94-.81,2.89-1.95,6.82-1.52,8.95-4.67,0,0,.27,8.86-4.32,11.35-2.19,1.19-4.02,1.14-5.35.78l.03-.11c.05-.16,1.15-3.63-.25-6.54Z" style="fill:silver;"/><path d="M157.23,87.66s-3.3,8.23.16,12.15c3.46,3.91,7.35,2.24,7.35,2.24,0,0,1.34-4.1-.71-6.92-2.05-2.82-5.89-3.76-6.81-7.46Z" style="fill:silver;"/><path d="M167.54,84.71c.23-.33.5-.64.82-.92,2.6-2.32,6.56-2.42,8.24-5.84,0,0,1.46,8.74-2.75,11.83-2.01,1.47-3.83,1.67-5.2,1.49l.02-.11c.03-.17.65-3.76-1.13-6.45Z" style="fill:silver;"/><path d="M158.68,77.81s-2.16,8.6,1.8,12.01c3.96,3.41,7.58,1.23,7.58,1.23,0,0,.77-4.25-1.63-6.77-2.41-2.52-6.34-2.94-7.75-6.47Z" style="fill:silver;"/><path d="M167.09,73.69c.18-.36.41-.71.68-1.03,2.24-2.67,6.14-3.33,7.32-6.95,0,0,2.7,8.45-1.04,12.1-1.78,1.74-3.55,2.2-4.93,2.22v-.11c.01-.17.11-3.81-2.03-6.22Z" style="fill:silver;"/><path d="M157.34,68.13s-.91,8.82,3.5,11.63c4.4,2.81,7.68.13,7.68.13,0,0,.16-4.31-2.58-6.46-2.74-2.15-6.7-2-8.59-5.3Z" style="fill:silver;"/><path d="M166.68,62.62c.12-.39.28-.77.49-1.13,1.76-3.01,5.49-4.33,6.03-8.1,0,0,4.09,7.86,1.04,12.1-1.45,2.02-3.13,2.77-4.48,3.03v-.11c-.04-.17-.56-3.77-3.08-5.79Z" style="fill:silver;"/><path d="M156.13,58.8s.61,8.85,5.42,10.87c4.82,2.02,7.59-1.18,7.59-1.18,0,0-.58-4.28-3.64-5.93-3.07-1.65-6.94-.83-9.37-3.76Z" style="fill:silver;"/><path d="M163.31,51.5c.06-.4.15-.8.3-1.2,1.25-3.25,4.72-5.15,4.66-8.96,0,0,5.3,7.11,2.97,11.78-1.11,2.22-2.64,3.24-3.94,3.7l-.03-.11c-.05-.16-1.14-3.64-3.96-5.22Z" style="fill:silver;"/><path d="M152.28,49.42s2.02,8.63,7.1,9.86c5.08,1.22,7.3-2.38,7.3-2.38,0,0-1.25-4.13-4.55-5.27-3.3-1.14-6.98.29-9.85-2.21Z" style="fill:silver;"/><path d="M158.22,41.95c.05-.4.13-.8.28-1.2,1.17-3.28,4.6-5.26,4.45-9.06,0,0,5.47,6.98,3.24,11.7-1.06,2.25-2.56,3.3-3.85,3.8l-.03-.11c-.05-.16-1.23-3.61-4.08-5.13Z" style="fill:silver;"/><path d="M147.14,40.13s2.22,8.58,7.33,9.69c5.11,1.1,7.25-2.55,7.25-2.55,0,0-1.35-4.1-4.67-5.16-3.32-1.06-6.98.46-9.9-1.98Z" style="fill:silver;"/><path d="M152.88,31.99c-.09-.39-.15-.8-.15-1.23,0-3.48,2.56-6.51,1.13-10.03,0,0,7.5,4.73,7,9.93-.24,2.47-1.3,3.97-2.35,4.87l-.07-.09c-.1-.13-2.37-2.98-5.57-3.45Z" style="fill:silver;"/><path d="M141.84,34.02s4.99,7.33,10.16,6.65c5.18-.68,5.96-4.84,5.96-4.84,0,0-2.66-3.41-6.14-3.28-3.48.12-6.41,2.78-9.99,1.48Z" style="fill:silver;"/><path d="M144.96,24.49c-.13-.38-.24-.78-.28-1.2-.4-3.46,1.8-6.75-.02-10.09,0,0,7.99,3.85,8.08,9.07.04,2.48-.84,4.09-1.78,5.11l-.08-.08c-.12-.12-2.69-2.7-5.92-2.8Z" style="fill:silver;"/><path d="M134.21,27.75s5.79,6.72,10.85,5.45c5.07-1.27,5.37-5.49,5.37-5.49,0,0-3.02-3.08-6.47-2.57-3.45.52-6.06,3.49-9.76,2.6Z" style="fill:silver;"/><path d="M136.29,16.96c-.18-.36-.33-.74-.43-1.16-.81-3.39.97-6.92-1.24-10.02,0,0,8.4,2.85,9.12,8.02.34,2.46-.34,4.16-1.14,5.29l-.09-.07c-.13-.11-3-2.35-6.22-2.06Z" style="fill:silver;"/><path d="M126.02,21.5s6.56,5.97,11.43,4.09c4.88-1.87,4.67-6.1,4.67-6.1,0,0-3.38-2.69-6.73-1.76-3.36.93-5.59,4.2-9.37,3.77Z" style="fill:silver;"/><path d="M126.87,10.85c-.23-.33-.43-.69-.58-1.09-1.27-3.25.02-6.99-2.59-9.76,0,0,8.7,1.68,10.13,6.7.68,2.39.23,4.17-.42,5.39l-.1-.06c-.15-.09-3.29-1.92-6.44-1.19Z" style="fill:silver;"/><path d="M117.32,16.74s7.31,5.02,11.88,2.5c4.58-2.52,3.8-6.68,3.8-6.68,0,0-3.71-2.21-6.91-.83-3.2,1.38-4.96,4.92-8.77,5.01Z" style="fill:silver;"/><path d="M124.83,9.97c.69-1.4,1.57-10.93-15.41-4.93,0,0,4.15,2.19,4.82,3.36.67,1.18,7.28,8.29,10.59,1.57Z" style="fill:silver;"/><path d="M45.8,140s10.37,12.68,27.93,11.88l-.21-3.34s-12.97,3.06-26.53-9.47l-1.19.93Z" style="fill:silver;"/><path d="M136.74,140s-10.37,12.68-27.93,11.88l.21-3.34s12.97,3.06,26.53-9.47l1.19.93Z" style="fill:silver;"/><path d="M102.82,92.18c-.19-.89-.86-1.63-1.8-1.86-.45-.11-.92-.18-1.41-.22-.1-.35-.29-.67-.54-.95-.48-.53-1.17-.81-1.89-.78-.61.03-1.26.11-1.89.23-.11-.22-.26-.43-.43-.61-.48-.5-1.16-.77-1.86-.73-1.02.05-1.94.21-2.71.39-.21-.27-.48-.48-.77-.64.65-.38,1.07-.68,1.16-.76.55-.41.9-1.04.96-1.73,1.47-.87,2.58-1.85,2.76-2.01.48-.43.77-1.04.8-1.68,1.54-1.04,2.43-2.23,2.58-2.43.39-.53.54-1.19.43-1.83,1.31-1.18,2.18-2.4,2.33-2.62.39-.56.52-1.26.37-1.91.68-.79,1.1-1.46,1.19-1.6.37-.61.46-1.35.24-2.02.54-.67.9-1.24,1.02-1.46.39-.66.44-1.46.15-2.16-.02-.05-.04-.1-.06-.14,2.41-3.24,5-5.1,5.02-5.11.91-.64,1.27-1.82.86-2.86-.4-1.04-1.47-1.67-2.57-1.52-2.55.33-4.81,1.26-6.4,2.08-.06-.04-.13-.07-.19-.1-.68-.33-1.46-.32-2.14.02-.9.45-1.68,1.04-2.34,1.63-.67-.18-1.39-.06-1.98.33-.7.47-1.46,1.07-2.15,1.66-.05-.03-.1-.06-.15-.08-.62-.32-1.35-.35-2-.09-1.36.54-2.42,1.31-3.23,2.09-.13-.06-.27-.11-.41-.14-.63-.15-1.3-.05-1.85.29-1.2.74-2.12,1.66-2.81,2.53-.72-.24-1.54-.13-2.2.34-.95.7-1.68,1.62-2.22,2.51-.76-.09-1.54.18-2.09.8-.55.62-1.03,1.53-1.42,2.43-.12,0-.25,0-.38.02-.64.09-1.22.42-1.61.94-.06.08-.11.15-.17.23.11-.35.18-.59.2-.68.21-.79,0-1.63-.55-2.24,0,0,0,0-.01-.01.66-1.58.94-2.95.99-3.2.14-.71-.05-1.45-.51-2-.09-.11-.18-.2-.28-.29.59-2.03.45-3.61.42-3.86-.07-.61-.37-1.17-.83-1.57.33-2.12-.2-3.61-.3-3.86-.08-.19-.18-.38-.3-.54.64-2.06.44-3.54.4-3.78-.11-.71-.53-1.33-1.15-1.7-.14-.08-.28-.15-.43-.2.19-1.75.01-3.13-.02-3.38-.11-.74-.55-1.39-1.19-1.76-.17-.1-.34-.17-.52-.22-.11-1.59-.53-2.8-.61-3.03-.2-.56-.6-1.01-1.1-1.29-.14-1.67-.66-2.69-.76-2.86-.33-.6-.91-1.04-1.58-1.19-.1-.03-.21-.04-.31-.05-.69-4.14-1.88-9.96-2.06-10.82-.23-1.13-1.22-1.94-2.37-1.94s-2.14.81-2.37,1.94c-.18.86-1.36,6.68-2.05,10.82-.1.01-.21.03-.31.05-.67.15-1.25.59-1.58,1.19-.1.18-.62,1.19-.76,2.86-.5.28-.9.73-1.1,1.29-.08.22-.5,1.44-.61,3.03-.18.05-.36.13-.53.22-.65.37-1.09,1.02-1.2,1.76-.04.25-.21,1.63-.02,3.38-.15.05-.29.12-.43.2-.61.37-1.04.99-1.15,1.69-.04.23-.23,1.71.4,3.78-.12.17-.22.35-.3.55-.09.24-.63,1.74-.3,3.85-.46.4-.76.96-.83,1.57-.03.25-.17,1.83.42,3.86-.1.09-.2.19-.29.29-.46.56-.65,1.29-.51,2,.05.25.33,1.62.99,3.2,0,0,0,0-.01.01-.55.61-.76,1.45-.55,2.24.02.09.09.33.2.68-.06-.08-.11-.16-.17-.24-.39-.52-.97-.85-1.61-.94-.13-.02-.25-.02-.38-.02-.39-.9-.87-1.81-1.42-2.43-.54-.61-1.33-.88-2.08-.79-.54-.89-1.27-1.82-2.22-2.51-.65-.48-1.47-.58-2.2-.34-.69-.87-1.61-1.79-2.81-2.53-.55-.34-1.22-.44-1.85-.28-.14.04-.28.08-.41.14-.81-.78-1.87-1.55-3.23-2.09-.65-.26-1.37-.22-1.99.09-.05.03-.1.05-.16.09-.7-.59-1.46-1.19-2.16-1.66-.58-.39-1.3-.51-1.97-.33-.66-.59-1.44-1.18-2.34-1.63-.67-.33-1.46-.34-2.14-.02-.07.03-.13.07-.19.1-1.59-.82-3.86-1.75-6.41-2.08-1.1-.15-2.16.48-2.57,1.52-.41,1.04-.05,2.22.86,2.86.03.02,2.62,1.87,5.03,5.12-.02.05-.04.09-.06.14-.29.7-.24,1.5.15,2.16.13.22.48.79,1.02,1.46-.22.67-.14,1.41.24,2.02.08.14.5.81,1.19,1.6-.15.65-.02,1.35.37,1.91.15.22,1.02,1.44,2.33,2.62-.11.64.04,1.3.43,1.83.14.2,1.04,1.38,2.58,2.43.03.64.32,1.24.8,1.68.18.16,1.29,1.14,2.77,2.01.06.69.41,1.31.96,1.73.1.07.51.38,1.17.76-.3.15-.56.37-.77.64-.77-.19-1.69-.34-2.71-.39-.7-.03-1.37.23-1.86.73-.18.18-.32.39-.43.61-.62-.11-1.27-.2-1.89-.23-.72-.03-1.4.26-1.89.78-.25.27-.43.6-.54.95-.5.04-.97.11-1.41.22-.94.23-1.61.97-1.8,1.86-1.68.6-3.97,1.69-5.56,3.57-.66.78-.75,1.88-.25,2.77.5.88,1.51,1.35,2.51,1.19.01,0,1.39-.23,3.03-.23.03,0,.07,0,.1,0,.32.61.88,1.06,1.55,1.23.1.02.34.08.69.12.33.51.84.88,1.44,1.04.1.03.72.18,1.64.29.05.11.1.22.16.33.36.59.95,1.01,1.63,1.13.11.02,1.06.19,2.35.22.05.09.11.18.18.26.39.52.97.85,1.62.94.08.01,1.05.14,2.3.05,0,.01.02.03.03.04.41.55,1.03.9,1.71.97.07,0,.68.07,1.52.07.46,0,.9-.02,1.32-.05.3.3.68.52,1.1.64.27.07,1.74.43,3.78-.1.26.14.55.23.85.26.02,0,.04,0,.08,0-.15.3-.24.63-.25.98,0,.11,0,.22,0,.33-.53.47-1.07,1.05-1.57,1.75-.39.56-.53,1.25-.38,1.92.02.08.04.16.06.24-.35.47-.71,1.01-1.05,1.6-.33.58-.4,1.27-.21,1.9-.46.84-.97,1.89-1.4,3.07-.35.97-.03,2.04.76,2.69.8.65,1.94.72,2.82.18,1.63-.99,3.13-1.86,4.32-2.51.57.33,1.26.42,1.9.23.17-.05,1.09-.33,2.12-.98.67.18,1.38.05,1.95-.33.15-.1,1.06-.72,2.01-1.6.51.02,1.01-.12,1.44-.41.32-.22,1.44-1.01,2.48-2.11.52-.02,1.02-.2,1.43-.52.13-.1.57-.46,1.11-1.01l-.49,10.93c0,.1,0,.21,0,.3.06,1.46,1.06,3.15,3.63,3.15.12,0,.25,0,.36,0,.59-.03,1.35-.11,2.07-.52,1.05-.6,1.64-1.71,1.59-2.97l-.49-10.89c.55.55.98.91,1.12,1.01.41.33.91.51,1.43.52,1.04,1.1,2.15,1.89,2.48,2.11.43.29.94.43,1.44.41.95.88,1.86,1.49,2.01,1.6.57.38,1.28.51,1.95.33,1.03.64,1.95.93,2.12.98.64.19,1.33.1,1.9-.23,1.62.89,3.54,2.03,4.35,2.53.88.54,2,.47,2.8-.18.8-.65,1.1-1.74.75-2.71-.43-1.18-.94-2.23-1.4-3.07.19-.63.12-1.31-.21-1.9-.34-.6-.7-1.14-1.05-1.6.02-.08.05-.16.06-.24.15-.66,0-1.36-.38-1.92-.49-.7-1.04-1.28-1.57-1.75.01-.11.01-.22,0-.33-.02-.35-.1-.68-.25-.98.04,0,.06,0,.08,0,.3-.03.59-.12.85-.26,2.03.53,3.51.17,3.78.1.42-.11.8-.33,1.1-.63.42.03.86.05,1.32.05.84,0,1.46-.06,1.52-.07.68-.07,1.3-.42,1.71-.97,0-.01.02-.03.03-.04,1.25.09,2.22-.04,2.3-.05.64-.08,1.22-.42,1.62-.94.07-.09.13-.18.18-.27,1.29-.02,2.24-.2,2.35-.22.68-.13,1.27-.54,1.63-1.14.06-.11.12-.21.16-.33.92-.11,1.54-.26,1.64-.29.6-.15,1.11-.52,1.44-1.04.35-.05.59-.1.69-.13.67-.17,1.23-.62,1.55-1.23,1.65-.03,3.11.23,3.12.23,1,.17,2.01-.3,2.51-1.18.51-.88.41-1.99-.25-2.77-1.59-1.89-3.89-2.98-5.57-3.58Z" style="fill:#003c38;"/><path d="M100.21,93.96l.24-1.28c-1.64-.4-3.4,0-3.4,0l.24-1.88c-1.84.08-4.33.88-4.33.88l.16-2c-2.48.12-4.24,1-4.24,1l-.48-1.52c-2.08.48-3.89,2.24-3.89,2.24l.16-1.84c-2.44.36-4.33,2.12-4.33,2.12l-.04-.92,1.44-.92-1.08-.6c2.72-.4,4.89-1.84,4.89-1.84l-1-1c2.64-.56,4.69-2.08,4.69-2.08l-.92-.92c2.16-.6,4.48-2.68,4.48-2.68l-1.48-.76c2.8-.6,4.52-2.96,4.52-2.96l-1.72-.64c2.4-.8,4.44-3.76,4.44-3.76l-1.64-.28c1.8-.96,3.12-3.12,3.12-3.12l-2-.32c1.8-.68,3.24-3.12,3.24-3.12l-1.24-.32c3-5,7.04-7.85,7.04-7.85-4.28.56-7.69,3.08-7.69,3.08l-.28-1.32c-2.09,1.04-3.53,3.2-3.53,3.2l-.52-1.4c-1.84,1.24-4.28,3.6-4.28,3.6l-.48-1.88c-2.92,1.16-4.08,3.8-4.08,3.8l-1.04-1.76c-2.48,1.52-3.48,4.16-3.48,4.16l-1.36-1.4c-1.8,1.32-2.61,4.09-2.61,4.09l-1.32-1.12c-1,1.12-1.88,4.32-1.88,4.32l-1.4-1.08c-1.12,1.48-1.56,4.68-1.56,4.68l-1.28-1.28c-1.16,1.6-1.32,4.96-1.32,4.96l-1.08-1.08c-1.12,2.37-.88,5.25-.88,5.25l-1.12-1.32-.64,1.56-.96-.24c1.8-2,2.68-4.97,2.68-4.97l-1.6.24c1.84-2.24,2.52-5.52,2.52-5.52l-1.56.2c1.68-1.64,2.56-5.01,2.56-5.01l-2.28.36c1.96-1.96,2.68-5.66,2.68-5.66h-1.91c1.81-2.71,1.51-5.42,1.51-5.42l-2.01.8c2.01-3.11,1.03-5.62,1.03-5.62l-1.83.8c2.21-3.11,1.81-5.62,1.81-5.62l-2.61.9c1.51-2.71,1-6.22,1-6.22l-2.21.9c1.1-2.41,0-5.42,0-5.42l-1.71,1.61c1.11-3.41,0-5.42,0-5.42l-1.71,1.2c-.2-2.81-2.49-13.95-2.49-13.95,0,0-2.29,11.14-2.49,13.95l-1.71-1.2s-1.11,2.01,0,5.42l-1.71-1.61s-1.1,3.01,0,5.42l-2.21-.9s-.5,3.51,1.01,6.22l-2.61-.9s-.4,2.51,1.81,5.62l-1.84-.8s-.97,2.51,1.03,5.62l-2.01-.8s-.3,2.71,1.51,5.42h-1.91s.72,3.7,2.68,5.66l-2.28-.36s.88,3.36,2.56,5.01l-1.56-.2s.68,3.28,2.52,5.52l-1.6-.24s.88,2.97,2.68,4.97l-.96.24-.64-1.56-1.12,1.32s.24-2.88-.88-5.25l-1.08,1.08s-.16-3.36-1.32-4.96l-1.28,1.28s-.44-3.2-1.56-4.68l-1.4,1.08s-.88-3.2-1.88-4.32l-1.32,1.12s-.8-2.76-2.6-4.09l-1.36,1.4s-1-2.64-3.48-4.16l-1.04,1.76s-1.16-2.64-4.08-3.8l-.48,1.88s-2.44-2.36-4.28-3.6l-.52,1.4s-1.44-2.16-3.52-3.2l-.28,1.32s-3.4-2.53-7.69-3.08c0,0,4.05,2.84,7.05,7.85l-1.24.32s1.44,2.44,3.24,3.12l-2,.32s1.32,2.16,3.12,3.12l-1.64.28s2.04,2.96,4.44,3.76l-1.72.64s1.72,2.36,4.52,2.96l-1.48.76s2.32,2.08,4.48,2.68l-.92.92s2.04,1.53,4.68,2.08l-1,1s2.16,1.44,4.88,1.84l-1.08.6,1.44.92-.04.92s-1.88-1.76-4.32-2.12l.16,1.84s-1.8-1.76-3.88-2.24l-.48,1.52s-1.76-.88-4.24-1l.16,2s-2.48-.8-4.32-.88l.24,1.88s-1.76-.4-3.4,0l.24,1.28s-4.16.8-6.33,3.36c0,0,3.48-.6,6.37,0l-.68,1.04s1.08.28,2.6,0l-.48,1.16s1.72.44,3.72.32l-.44,1.4s2.12.4,4.2,0l-.2,1.4s2.48.32,4.28-.56l-.32,1.6s3.19.32,4.84-.6l-.51,1.32s2.24.6,4.72-1.12l-.44,1.22s2.56.3,4.8-.66l-.32.71s1.17.22,2.82,0c-.26.04-1.36.24-2.06.77l.76.84s-1.52,0-4.04,1.84l.96.84s-1.72.76-2.96,2.52l1.04.6s-1.28,1.2-2.28,2.96l.84.16s-1.36,1.92-2.28,4.44c.15-.09,4.99-3.05,6.89-3.8l-.04,1.24s1.92-.56,2.92-2l.48,1s2.04-1.36,3-2.8l.44.8s2.6-1.76,3.28-3.52l.48,1s3.44-2.72,3.52-5.88l.28,1.16s.95-1.07,1.6-2.47l-.86,19.08s0,.09,0,.13c.03.78.69.87,1.47.83.78-.03,1.38-.18,1.34-.96l-.86-19.08c.65,1.4,1.6,2.47,1.6,2.47l.28-1.16c.08,3.16,3.52,5.88,3.52,5.88l.48-1c.68,1.76,3.28,3.52,3.28,3.52l.44-.8c.96,1.44,3,2.8,3,2.8l.48-1c1,1.44,2.92,2,2.92,2l-.04-1.24c1.89.75,6.73,3.71,6.88,3.8-.92-2.52-2.28-4.44-2.28-4.44l.84-.16c-1-1.76-2.28-2.96-2.28-2.96l1.04-.6c-1.24-1.76-2.96-2.52-2.96-2.52l.96-.84c-2.52-1.84-4.04-1.84-4.04-1.84l.76-.84c-.7-.52-1.8-.73-2.07-.77,1.65.21,2.82,0,2.82,0l-.32-.71c2.24.96,4.8.66,4.8.66l-.44-1.22c2.48,1.72,4.72,1.12,4.72,1.12l-.52-1.32c1.65.92,4.84.6,4.84.6l-.32-1.6c1.8.88,4.28.56,4.28.56l-.2-1.4c2.08.4,4.2,0,4.2,0l-.44-1.4c2,.12,3.73-.32,3.73-.32l-.48-1.16c1.52.28,2.6,0,2.6,0l-.68-1.04c2.88-.6,6.36,0,6.36,0-2.16-2.56-6.33-3.36-6.33-3.36Z" style="fill:#2e8a42;"/><path d="M46.54,88.56c.01-.1.02-.2.03-.3.01-.2.03-.4.03-.6.01-.39,0-.77-.01-1.13-.07-1.45-.38-2.63-.67-3.42-.16-.39-.29-.69-.4-.89-.1-.2-.16-.3-.16-.3.44,1.85.47,3.69.35,5.39-.01.21-.03.42-.05.63h0c-.43-.37-.85-.73-1.28-1.1-1.76-1.53-3.47-3.01-5.11-4.44.03-.11.05-.22.07-.33.2-.88.32-1.73.4-2.51.17-1.57.12-2.9.02-3.81-.06-.46-.12-.82-.18-1.06-.05-.24-.08-.37-.08-.37,0,1.05-.1,2.07-.24,3.06-.14,1-.31,1.97-.5,2.9-.1.47-.2.93-.3,1.37,0,.01,0,.02,0,.03-2.05-1.77-3.99-3.44-5.78-4.98l.03-.1.04-.17c.03-.12.04-.23.06-.34.04-.22.07-.44.09-.66.04-.43.05-.85.05-1.25-.03-1.6-.37-2.89-.66-3.77-.08-.22-.14-.41-.2-.58-.07-.17-.13-.3-.17-.42-.1-.22-.15-.35-.15-.35.37,2.05.5,4.08.27,5.93-.04.34-.1.67-.17.99-1.92-1.64-3.65-3.12-5.15-4.4.03-.12.07-.24.1-.37.04-.17.07-.34.11-.51.07-.33.12-.66.16-.97.18-1.25.14-2.3.1-3.03-.08-.73-.14-1.14-.14-1.14-.23,1.65-.58,3.22-.94,4.68-.04.18-.1.36-.14.54l-.03.12c-.69-.58-1.32-1.12-1.88-1.59-2.05-1.72-3.22-2.71-3.22-2.71,1.48,1.46,2.97,2.91,4.47,4.34,0,0-.01,0-.02,0-.34-.01-.68-.06-1-.08-.33-.03-.64-.05-.94-.08-1.21-.11-2.22-.23-2.93-.3-.71-.08-1.12-.12-1.12-.12,1.49.68,3.09,1.12,4.62,1.37.38.06.76.12,1.13.15.19.02.37.03.56.04.27.02.53.03.79.05,1.63,1.55,3.26,3.06,4.88,4.54-.07.02-.14.04-.21.06-.41.12-.81.26-1.21.33-.4.09-.78.18-1.15.26-1.49.27-2.75.39-3.64.44-.89.03-1.41,0-1.41,0,.98.3,2.02.44,3.04.46.26,0,.51.02.77.01.26-.01.51-.03.76-.04.25-.02.51-.03.75-.06.25-.04.49-.08.73-.12.24-.04.48-.08.72-.12.24-.05.47-.12.7-.18.23-.06.45-.13.68-.19.1-.03.2-.06.3-.09,1.95,1.77,3.87,3.48,5.74,5.1-.71.27-1.41.46-2.06.61-1.47.31-2.75.38-3.64.4-.9.02-1.41-.03-1.41-.03.98.32,2.02.48,3.04.53,1.03.05,2.06-.03,3.04-.23.24-.06.49-.1.72-.18.24-.07.47-.14.7-.22.14-.06.29-.12.43-.17,2.28,1.98,4.47,3.82,6.5,5.5-.07.02-.14.04-.21.06-.74.23-1.46.38-2.14.5-1.35.23-2.5.28-3.31.28-.81,0-1.28-.05-1.28-.05.88.33,1.81.51,2.74.59.93.08,1.87.05,2.76-.09.44-.07.89-.15,1.3-.27.21-.06.42-.11.62-.18.11-.04.22-.07.33-.11l.05-.02c1.71,1.41,3.32,2.67,4.75,3.8,1.5,1.15,2.8,2.15,3.91,2.94.55.4,1.04.76,1.47,1.06.44.3.81.55,1.11.75.61.41.93.62.93.62-4.06-3.2-7.94-6.59-11.65-9.82l.02-.14Z" style="fill:#003c38;"/><path d="M47.41,96.47c-.05-.12-.1-.25-.16-.37-.06-.11-.12-.22-.18-.33-.12-.22-.24-.42-.38-.6-.51-.75-1.03-1.28-1.41-1.63-.38-.36-.62-.54-.62-.54.52,1.06,1.06,2.07,1.51,3.02.07.16.14.31.21.46-.95-.11-1.88-.22-2.81-.31-1.24-.12-2.46-.23-3.65-.32l-.02-.04c-.05-.12-.1-.23-.16-.34-.13-.2-.26-.4-.38-.58-.53-.69-1.08-1.15-1.48-1.45-.39-.3-.64-.43-.64-.43.6.94,1.19,1.86,1.61,2.72,0,.02.01.03.02.04-1.69-.12-3.32-.21-4.87-.28-.07-.1-.11-.16-.18-.25-.17-.26-.37-.47-.56-.68-.1-.1-.19-.2-.28-.3-.1-.09-.19-.18-.29-.27-.76-.7-1.46-1.17-1.97-1.49-.5-.31-.81-.46-.81-.46.87,1.03,1.76,2,2.52,2.94.09.12.18.23.28.35.03.03.05.07.08.1-.7-.03-1.39-.05-2.05-.07-1.32-.04-2.56-.06-3.71-.07l-.12-.07c-.25-.14-.56-.33-.64-.36-.53-.28-1.03-.56-1.52-.75-.48-.2-.93-.37-1.33-.52-.4-.14-.75-.24-1.05-.33-.29-.09-.52-.15-.68-.19-.16-.04-.24-.06-.24-.06.57.39,1.14.78,1.72,1.12.57.36,1.14.69,1.69,1.01.08.05.16.09.24.14-4.27,0-6.88.12-6.88.12,2.55.17,5.11.33,7.62.49-.05.08-.11.16-.16.23-.16.22-.31.44-.45.65-.59.83-1.12,1.5-1.53,1.94-.21.22-.38.39-.5.5-.12.11-.19.17-.19.17.67-.23,1.28-.63,1.82-1.07.54-.45,1.02-.95,1.44-1.46.1-.13.21-.25.3-.38l.07-.1.04-.05.07-.1c.06-.09.12-.17.17-.25,2.11.13,4.18.26,6.2.39-.1.42-.22.82-.35,1.19-.32.91-.69,1.64-1.01,2.13-.16.24-.3.43-.4.55-.1.13-.15.2-.15.2.61-.33,1.14-.8,1.57-1.34.43-.54.76-1.14,1.01-1.75.12-.3.22-.61.3-.92,1.73.11,3.42.22,5.04.33,0,.04,0,.09,0,.13-.03.42-.13.81-.25,1.18-.25.73-.59,1.32-.86,1.73-.12.21-.25.36-.32.47-.08.11-.12.17-.12.17.5-.27.97-.62,1.36-1.05.39-.42.71-.92.9-1.46.1-.27.17-.54.21-.82.01-.1.02-.19.02-.29,1.95.14,3.8.27,5.53.41.22.02.44.03.66.05-.19.26-.38.51-.58.73-.26.33-.54.6-.78.86-.26.23-.48.45-.67.61-.4.31-.64.51-.64.51,1.19-.23,2.27-.94,3.06-1.75.2-.2.38-.42.55-.64l.06-.08.08-.11s.02-.03.02-.04c2.98.25,5.48.52,7.33.72,2.2.27,3.46.43,3.46.43-3.57-.85-7.2-1.46-10.71-1.9-.02-.05-.04-.1-.05-.14Z" style="fill:#003c38;"/><path d="M52.18,102.99c-.12-.06-.25-.1-.37-.15-.5-.16-.98-.24-1.42-.28-.88-.06-1.6.04-2.09.14-.49.1-.76.2-.76.2,1.12.17,2.2.35,3.16.6.22.06.43.12.63.19-.99.81-1.93,1.6-2.81,2.36-.02,0-.04,0-.06-.01-.13-.02-.25-.05-.37-.06-.12,0-.23-.01-.35-.02-.11,0-.22-.01-.33-.01-.11,0-.21,0-.31.01-.82.03-1.48.16-1.95.28-.46.11-.71.21-.71.21,1.06.18,2.11.28,3.05.4.03,0,.07.01.1.02-.81.71-1.56,1.39-2.25,2.02-.14,0-.28,0-.41,0-.08,0-.15,0-.23,0-.15,0-.3,0-.44.03-.29.04-.56.08-.83.13-.26.06-.51.12-.75.18-.96.26-1.72.57-2.24.81-.52.24-.81.41-.81.41,1.3-.14,2.56-.33,3.74-.48.29-.05.58-.05.86-.09,0,0,.02,0,.02,0-2.02,1.89-3.22,3.12-3.22,3.12,1.36-.94,2.71-1.93,4-2.92.03.18.07.36.09.53.15.93.19,1.73.14,2.28,0,.14-.02.26-.04.37-.01.11-.03.2-.05.27-.04.15-.06.23-.06.23.42-.52.65-1.2.75-1.86.11-.66.11-1.32.06-1.94l-.02-.23-.02-.18s-.01-.08-.02-.11c.86-.68,1.7-1.36,2.51-2.02,0,.05.02.1.03.15.04.2.08.4.1.58.07.38.09.73.13,1.04,0,.31.03.59.03.83-.02.46-.01.74-.01.74.56-.95.74-2.11.66-3.15-.02-.26-.05-.52-.1-.76,0-.02-.02-.07-.03-.12.98-.82,1.9-1.62,2.76-2.38.04.19.08.37.1.55.07.4.1.77.14,1.11.01.33.04.63.04.88-.01.49,0,.79,0,.79.54-1.03.73-2.24.63-3.34,0-.14-.03-.28-.05-.41-.01-.1-.03-.16-.05-.28,3.31-2.97,5.43-5.14,5.43-5.14-2.09,1.45-4.11,2.99-5.99,4.49,0,0-.01,0-.02,0Z" style="fill:#003c38;"/><path d="M63.62,103.68c-.04.2-.05.31-.08.47-.02.24-.04.47-.04.69,0,.45.05.85.1,1.2.08.35.15.65.23.9.18.48.3.74.3.74-.01-1.16.1-2.24.28-3.22,0-.02.01-.05.02-.07.94.83,1.87,1.61,2.75,2.35-.01.04-.02.08-.02.1v.09s-.04.17-.04.17c-.02.12-.03.23-.04.34-.02.23-.03.44-.02.66,0,.42.06.8.11,1.13.08.33.15.62.24.85.19.45.31.69.31.69-.04-1.1.08-2.1.24-3.04.02-.1.04-.21.06-.31.89.73,1.73,1.4,2.51,2,0,0,0,0,0,0l-.03.2-.02.14c-.03.27-.04.53-.05.79-.02,1.01.15,1.87.37,2.42.05.14.11.26.16.36.05.1.1.19.15.25.09.13.14.19.14.19-.18-.64-.17-1.27-.13-1.89.04-.62.13-1.22.22-1.8v-.02c2.41,1.85,3.99,2.94,3.99,2.94-1.04-1.07-2.12-2.12-3.19-3.13.22.02.44.04.65.06.25.03.5.06.73.09,1.91.26,3.2.43,3.2.43-1.13-.65-2.36-1.12-3.58-1.38-.3-.08-.61-.1-.91-.15-.15-.02-.3-.04-.45-.04-.18,0-.36,0-.53-.01-.07,0-.13,0-.19,0-.77-.7-1.54-1.39-2.29-2.04.08-.01.16-.03.23-.04.1,0,.2-.02.29-.03.77-.1,1.43-.17,1.89-.23.46-.06.73-.1.73-.1-1.02-.36-2.09-.54-3.13-.51-.26.02-.51.02-.77.08-.06.01-.12.02-.17.03-.98-.84-1.94-1.63-2.84-2.35.37-.13.74-.24,1.09-.33.78-.18,1.47-.29,1.96-.36.49-.07.77-.11.77-.11-1.08-.37-2.25-.47-3.35-.3-.27.04-.54.11-.8.19-.13.05-.26.09-.38.14-.05.02-.09.04-.14.07-3.48-2.77-5.97-4.5-5.97-4.5,1.79,1.83,3.64,3.57,5.44,5.17Z" style="fill:#003c38;"/><path d="M70.56,89.42c.2.07.4.14.6.18.8.23,1.58.33,2.3.39,1.44.11,2.63-.05,3.44-.22.81-.17,1.25-.35,1.25-.35-.93.07-1.85.03-2.75-.03-.9-.07-1.77-.19-2.6-.36-.41-.09-.82-.18-1.21-.29-.12-.03-.24-.07-.35-.1.44-.37.89-.73,1.32-1.1,1.79-1.5,3.51-2.97,5.15-4.41.08.03.16.06.23.09.87.32,1.72.51,2.51.61,1.59.19,2.9.06,3.8-.1.9-.15,1.39-.33,1.39-.33-1.03.05-2.04,0-3.03-.09-.99-.09-1.94-.26-2.84-.5-.22-.07-.45-.12-.66-.19-.2-.07-.39-.13-.59-.2,2.05-1.79,3.96-3.51,5.72-5.11.05.02.1.03.15.05.22.06.44.12.66.18.44.12.86.24,1.28.29.42.07.82.13,1.21.19,1.57.15,2.88.06,3.78-.06.9-.14,1.39-.31,1.39-.31-1.02.03-2.03-.03-3.02-.16-.25-.03-.49-.05-.73-.09-.24-.04-.48-.08-.72-.12-.24-.04-.48-.07-.71-.12-.23-.05-.46-.11-.69-.16-.23-.05-.46-.1-.68-.15-.23-.05-.44-.13-.66-.19-.14-.04-.28-.08-.42-.12,1.83-1.67,3.46-3.2,4.87-4.52h.23c.15-.03.3-.04.45-.05.18-.01.37-.03.54-.05.36-.03.7-.09,1.03-.14.33-.05.65-.11.95-.18,1.22-.25,2.2-.57,2.88-.8.68-.24,1.05-.42,1.05-.42-1.62.16-3.22.32-4.74.47-.38.04-.74.07-1.1.1-.07,0-.13,0-.2.01.53-.51,1.03-.98,1.47-1.41,1.93-1.86,3.02-2.93,3.02-2.93-1.71,1.42-3.42,2.85-5.11,4.28-.04-.13-.07-.27-.11-.4-.09-.31-.16-.62-.24-.91-.3-1.17-.47-2.18-.6-2.89-.09-.71-.16-1.13-.16-1.13-.31,1.64-.23,3.34.05,4.88.03.19.08.38.12.57l.03.14.05.19c.02.07.04.14.06.21-1.74,1.48-3.46,2.95-5.15,4.4,0-.02,0-.04-.01-.06-.04-.2-.08-.4-.11-.6-.06-.39-.1-.78-.13-1.16-.1-1.5.03-2.79.14-3.68.03-.22.06-.42.09-.6.03-.17.06-.32.08-.44.04-.24.06-.37.06-.37-.88,1.88-1.32,4.02-1.18,6.02.04.5.1.99.22,1.48l.03.1h0c-1.99,1.72-3.92,3.39-5.77,5.01-.19-.79-.35-1.54-.49-2.25-.29-1.51-.45-2.78-.52-3.69-.02-.45-.04-.81-.03-1.05,0-.25,0-.38,0-.38-.27,1.01-.38,2.07-.38,3.1,0,1.04.08,2.05.23,3.02.08.48.16.96.26,1.42.03.11.05.23.08.34.02.07.03.11.04.18-2.27,1.98-4.42,3.85-6.4,5.57-.01-.13-.03-.25-.04-.38-.04-.37-.06-.72-.08-1.07-.06-1.37.03-2.53.16-3.34.07-.4.13-.72.18-.94.05-.22.08-.33.08-.33-.48.82-.8,1.74-1,2.67-.2.93-.28,1.86-.26,2.76,0,.23.01.45.03.67,0,.11.01.22.03.33l.02.17.03.21c-1.67,1.45-3.22,2.78-4.59,3.97-1.44,1.21-2.68,2.29-3.74,3.14-.52.43-.99.81-1.4,1.15-.41.32-.77.6-1.05.83-.57.45-.88.69-.88.69,4.33-2.83,8.38-6.03,12.19-9.16.06.02.13.05.19.07Z" style="fill:#003c38;"/><path d="M91.96,97.86c-.41-.52-.79-1.06-1.16-1.57-.09-.13-.18-.26-.27-.39l-.02-.03c4.71-.29,7.62-.47,7.62-.47-2.29-.1-4.59-.14-6.87-.15.24-.15.48-.3.71-.43.44-.26.85-.51,1.2-.73.36-.21.67-.41.93-.57.25-.17.45-.3.59-.39l.21-.14c-.68.14-1.34.35-1.99.56-.64.24-1.26.48-1.85.77-.29.15-.58.3-.85.45l-.21.12c-.11.07-.23.13-.34.2-.1.06-.19.11-.28.17-1.97.02-3.92.07-5.81.15.07-.09.15-.19.22-.28.08-.1.16-.21.23-.3.08-.1.16-.19.24-.29.63-.75,1.19-1.37,1.57-1.81.39-.44.61-.7.61-.7-1.21.6-2.31,1.4-3.21,2.34-.11.12-.22.24-.32.36-.11.12-.21.24-.3.37-.08.12-.17.24-.25.36-1.68.08-3.32.18-4.9.3.07-.15.15-.3.21-.45.38-.7.76-1.27,1.01-1.68.27-.41.42-.64.42-.64-.98.56-1.83,1.34-2.41,2.29-.12.17-.2.36-.28.56-2.04.16-3.97.35-5.76.56-.24.03-.47.05-.71.08,0,0,0,0,0,0,.05-.1.1-.21.14-.31.09-.2.18-.4.28-.59.37-.77.72-1.4.95-1.86.24-.45.37-.72.37-.72-.94.72-1.74,1.61-2.32,2.59-.14.25-.29.49-.38.76l-.08.2s-.02.05-.03.08c-2.97.38-5.47.82-7.29,1.16-1.09.21-1.94.41-2.52.53-.58.13-.89.2-.89.2,3.65-.47,7.29-.82,10.81-1.12l.07.1c.33.42.66.78,1.01,1.08.34.31.7.54,1.01.74.33.18.62.33.86.43.51.17.79.24.79.24-.96-.72-1.71-1.55-2.37-2.36-.09-.11-.18-.22-.26-.33.93-.08,1.85-.15,2.75-.22,1.16-.09,2.29-.18,3.41-.26,0,.05,0,.11,0,.16.07.53.24,1,.45,1.4.43.8.98,1.31,1.38,1.61.19.16.37.25.48.33.12.07.18.11.18.11-.64-.95-1.16-1.88-1.4-2.79-.06-.22-.1-.45-.13-.67,0-.07-.01-.15-.02-.22,1.75-.13,3.44-.24,5.04-.35.15.54.34,1.03.56,1.47.48.94,1.07,1.62,1.53,2.01.24.2.43.33.57.42.14.08.21.13.21.13-.86-1.07-1.35-2.26-1.72-3.4-.07-.23-.13-.46-.19-.69.83-.05,1.65-.11,2.43-.16,1.34-.08,2.6-.16,3.76-.23.09.13.18.25.26.37.09.12.18.23.27.34.18.22.36.43.54.63.72.78,1.43,1.34,1.97,1.66.27.16.49.27.64.33.15.06.24.09.24.09-.53-.47-.96-.99-1.38-1.51Z" style="fill:#003c38;"/><path d="M55.13,70.68c.23.16.48.29.72.42.12.06.24.13.36.19.13.05.25.11.38.16.25.11.49.23.75.3.12.04.25.08.37.12.01,2.28.03,4.46.05,6.53-.1-.02-.21-.04-.31-.06-.82-.19-1.57-.49-2.24-.83-.67-.34-1.24-.73-1.73-1.11-.49-.37-.9-.74-1.22-1.05-.32-.31-.56-.58-.73-.76-.16-.18-.24-.29-.24-.29.44.94,1.07,1.8,1.8,2.55.73.75,1.59,1.38,2.51,1.83.46.22.94.4,1.42.53.24.08.48.11.72.16.01,0,.02,0,.03,0,.03,2.44.06,4.71.1,6.77-.02,0-.04-.02-.06-.03-.16-.08-.32-.16-.47-.24-.3-.17-.6-.33-.87-.51-1.1-.7-1.93-1.42-2.5-1.95-.57-.53-.87-.86-.87-.86.81,1.6,2.08,2.99,3.52,3.95.18.13.37.23.55.34.09.05.18.11.28.15.11.05.22.11.33.16l.09.04c.13,6.97.28,11.28.28,11.28.13-3.79.24-7.58.31-11.3l.08-.06.19-.15c.16-.13.31-.25.46-.38.59-.51,1.13-1.02,1.59-1.53.93-1.01,1.59-1.95,1.98-2.65.19-.35.33-.63.41-.83.08-.2.13-.3.13-.3-.55.72-1.17,1.36-1.79,1.97-.62.61-1.26,1.18-1.88,1.72-.31.27-.62.53-.92.79-.08.06-.15.12-.23.18.04-2.24.07-4.46.1-6.64l.08-.04c.84-.44,1.54-.98,2.14-1.52,1.2-1.09,1.97-2.2,2.44-3,.12-.2.22-.38.31-.54.08-.16.15-.3.2-.41.11-.22.17-.34.17-.34-1.31,1.65-2.78,3.1-4.34,4.15-.32.22-.65.42-.98.6.02-2.18.03-4.31.04-6.39l.12-.07c.11-.07.22-.13.33-.2.21-.13.42-.27.61-.41.39-.28.76-.57,1.09-.87,1.35-1.17,2.24-2.38,2.79-3.25.13-.22.25-.42.35-.59.09-.18.17-.33.23-.45.12-.25.19-.38.19-.38-1.43,1.85-3.13,3.4-4.87,4.59-.28.19-.56.36-.84.53,0-2.15,0-4.24,0-6.26.11-.05.22-.1.33-.16.22-.11.43-.24.62-.37.4-.25.75-.54,1.08-.82,1.29-1.16,2.07-2.37,2.56-3.22.25-.43.42-.78.53-1.02.11-.24.18-.36.18-.36-1.36,1.77-2.86,3.4-4.53,4.47-.21.13-.42.26-.63.37-.04.03-.09.05-.14.07-.01-2.27-.03-4.45-.05-6.5l.1-.06c.05-.04.11-.07.16-.1.1-.07.21-.14.31-.21.2-.14.39-.29.58-.44.37-.31.71-.61,1.01-.93,1.23-1.27,1.95-2.58,2.31-3.53.08-.24.16-.45.23-.64.06-.19.09-.35.13-.48.06-.26.1-.4.1-.4-.94,2.1-2.44,3.79-4.05,5.05-.29.23-.58.43-.88.63-.04-2.95-.08-5.63-.13-7.97.05-.04.1-.07.14-.11l.18-.17c.06-.05.12-.12.14-.14.49-.51.83-1.08,1.1-1.62.53-1.09.7-2.07.77-2.75.04-.34.04-.61.04-.79,0-.18,0-.28,0-.28-.48,1.48-1.09,2.83-1.88,3.92-.17.23-.34.44-.52.64-.12-5.56-.24-8.88-.24-8.88-.11,2.95-.19,5.92-.26,8.86-.09-.09-.18-.19-.26-.29-.19-.22-.36-.44-.53-.66-.65-.88-1.1-1.7-1.4-2.29-.3-.59-.45-.95-.45-.95.11,1.52.66,3.03,1.51,4.26.11.15.22.3.34.44l.18.21.09.1s.03.03.05.06l.08.08c.11.1.23.21.34.31l.02.02c-.06,2.71-.1,5.4-.13,8.04-.11-.06-.22-.13-.32-.2-.19-.13-.39-.24-.57-.39-.18-.14-.36-.27-.53-.41-.33-.29-.66-.57-.94-.86-1.17-1.16-1.99-2.31-2.53-3.13-.27-.41-.47-.75-.6-.98-.13-.23-.2-.35-.2-.35.62,2.17,1.82,4.22,3.4,5.75l.3.29c.11.09.21.17.32.26.1.09.21.17.31.26.11.08.22.16.33.23.22.15.43.31.67.43.12.07.23.13.35.19-.02,2.22-.04,4.4-.05,6.54-.18-.07-.36-.15-.53-.23-.81-.38-1.55-.85-2.18-1.35-1.27-.99-2.18-2.02-2.79-2.76-.3-.37-.53-.67-.68-.88-.15-.21-.23-.33-.23-.33.81,2.05,2.19,3.92,3.91,5.22.22.16.43.33.66.46.23.13.45.29.69.4.24.11.47.23.7.33.12.05.24.09.36.13.03.01.06.02.08.03,0,2.19,0,4.33,0,6.4-.18-.06-.36-.12-.53-.2-.89-.34-1.69-.79-2.39-1.24-.71-.45-1.32-.93-1.84-1.39-.53-.45-.96-.88-1.3-1.24-.35-.36-.6-.66-.78-.87-.17-.21-.26-.33-.26-.33.49,1.04,1.16,2.01,1.93,2.87.77.86,1.65,1.62,2.6,2.21Z" style="fill:#003c38;"/><path d="M31.01,179.37c-2.07,0-3.72-1.74-3.72-3.9s1.68-3.91,3.73-3.9c2.06.01,3.74,1.77,3.74,3.91,0,2.13-1.69,3.89-3.75,3.9M30.95,165.99c-5.22.02-9.44,4.27-9.45,9.49,0,5.23,4.26,9.48,9.53,9.47,5.23-.01,9.46-4.21,9.49-9.46.04-5.24-4.29-9.53-9.56-9.51" style="fill:#fff;"/><path d="M15.32,173.45c-1.26-3.13-4.1-6.18-5.73-7.1h-5.47v18.22h5.45v-11.72c2.1,1.71,4.47,6.48,5.57,11.48l.05.22v.03h5.57v-18.22h-5.45v7.1Z" style="fill:#fff;"/><path d="M84.16,179.17v-12.82h-5.59v18.23h12.7v-5.41h-7.1Z" style="fill:#fff;"/><path d="M48.28,174.46c-.47.06-.96.01-1.5.01v-2.96c.62,0,1.23-.08,1.81.02.7.11,1.14.8,1.1,1.52-.05.73-.57,1.3-1.4,1.41M72.07,166.36h0c-1.21.79-3.65,4.35-5.17,8.55-1.53-4.21-4.03-7.81-5.17-8.55h-5.58v17.38c-1.34-2.09-2.45-3.8-3.7-5.74.3-.23.52-.39.73-.57,2.97-2.5,2.82-7.47-.3-9.71-1.34-.96-2.85-1.31-4.44-1.35-2.25-.06-7.03-.03-7.17-.02v18.21h5.5v-5.39s2.7,4.3,3.38,5.4h11.45v-10.95c1.3,1.34,2.95,6.73,3.29,10.95h4c.35-4.21,2-9.62,3.3-10.95v10.95h5.45v-18.22h-5.58Z" style="fill:#fff;"/><path d="M87.9,165.81c.19,0,.3-.1.3-.27s-.11-.27-.3-.27h-.23v.54h.23ZM87.81,166.16h-.14v.69h-.4v-1.93h.7c.34-.02.63.25.65.6h0c0,.27-.15.5-.38.58l.4.75h-.46l-.36-.69h0ZM87.87,167.32c.75,0,1.34-.62,1.34-1.42.02-.76-.56-1.39-1.3-1.41h-.04c-.75,0-1.34.62-1.34,1.41s.58,1.42,1.34,1.42ZM87.87,164.12c.96-.01,1.75.78,1.76,1.76,0,.98-.76,1.79-1.72,1.8-.96.01-1.75-.78-1.76-1.76v-.02c0-.98.77-1.77,1.72-1.78" style="fill:#fff;"/><path d="M82.93,187.97v3.96l-2.73-2.8-1.83,1.88,2.73,2.8h-3.86v2.65h13.97v-2.65h-3.87l2.73-2.8-1.83-1.88-2.73,2.8v-3.96h-2.59Z" style="fill:#2e8a42;"/><path d="M46.05,188.65v7.88h1.86v-3.13h1.78v-1.76h-1.78v-1.22h1.83v-1.78h-3.69Z" style="fill:#2e8a42;"/><path d="M53.24,192.33h-.44c-.48,0-.6.2-.6.57v3.63h-1.79v-6.1h1.78v.42c.22-.29.51-.46,1.04-.46v1.93s0,0,0,0Z" style="fill:#2e8a42;"/><path d="M55.77,195.15c.36.02.66-.27.68-.64v-.05c0-.41-.3-.67-.69-.67-.35-.02-.65.26-.67.62v.05c-.01.37.27.68.63.69h.05M55.44,192.51c.49,0,.82.11.98.22v-.25c0-.34-.13-.66-.57-.66s-.54.28-.54.52h-1.66c.03-1.23.73-1.97,2.19-1.97,1.85,0,2.36,1.01,2.36,2.38v3.78h-1.47v-.33c-.28.25-.66.4-1.22.4-1.17,0-2.07-.78-2.08-2.08-.01-1.21.79-2,2.02-2" style="fill:#2e8a42;"/><path d="M61.93,192.74c0-.44-.21-.74-.63-.74s-.63.29-.63.73v3.8h-1.79v-6.1h1.79v.39c.13-.13.48-.46,1.2-.46,1.4,0,1.86.98,1.86,2.16v4.01h-1.79v-3.8Z" style="fill:#2e8a42;"/><path d="M68.33,194.58l.99,1.3c-.55.5-1.26.77-1.99.75-1.91,0-3.1-1.38-3.1-3.13s1.29-3.16,3.08-3.16c1.01,0,1.65.41,2.01.75l-.99,1.3c-.27-.26-.63-.4-1-.4-.84,0-1.32.65-1.32,1.5,0,.95.63,1.49,1.34,1.49.37,0,.72-.14.99-.4" style="fill:#2e8a42;"/><path d="M71.01,192.8h2.09c-.04-.5-.42-.93-1.07-.93-.53-.02-.98.39-1.02.93ZM70.96,194.08c.08.58.52.93,1.21.93.63,0,1-.38,1.21-.72l1.37.82c-.33.71-1.11,1.51-2.59,1.51-1.81,0-3.06-1.18-3.06-3.12,0-1.82,1.19-3.18,2.92-3.18s2.92,1.22,2.92,3.04c0,.18,0,.4-.02.71h-3.97,0Z" style="fill:#2e8a42;"/><path d="M115.18,193.3c.69,0,1.31-.25,1.87-.75l1.87,2.45c-.98.95-2.23,1.42-3.75,1.42-1.76,0-3.18-.56-4.25-1.69-1.07-1.12-1.6-2.53-1.6-4.22s.55-3.09,1.65-4.24c1.1-1.15,2.48-1.73,4.16-1.73,1.55,0,2.82.47,3.8,1.42l-1.87,2.45c-.56-.5-1.19-.75-1.89-.75-.78,0-1.39.27-1.83.8-.44.53-.66,1.21-.66,2.04s.24,1.54.73,2.05c.49.51,1.08.76,1.78.76h0Z" style="fill:#fff;"/><path d="M118.97,192.42c-.01-1.15.33-2.06,1.03-2.75.7-.69,1.63-1.03,2.79-1.03.81,0,1.43.14,1.85.41v-.47c0-.83-.36-1.25-1.09-1.25-.36,0-.63.1-.79.29-.16.19-.24.43-.24.7h-3.12c.03-1.19.39-2.11,1.08-2.75.69-.65,1.71-.97,3.05-.97,1.64,0,2.78.39,3.45,1.18s1,1.89,1,3.31v7.14h-2.77v-.62c-.56.5-1.33.75-2.31.75-1.13,0-2.07-.36-2.8-1.06-.74-.71-1.11-1.66-1.12-2.87h0ZM122.49,191.42c-.24.24-.36.54-.36.91s.12.68.37.92c.24.24.55.37.91.37s.67-.12.91-.37c.24-.24.37-.55.37-.92s-.12-.69-.37-.92c-.25-.23-.56-.34-.93-.34s-.66.12-.9.36h0Z" style="fill:#fff;"/><path d="M137.7,196.23v-.75c-.74.63-1.73.95-2.96.95-1.75,0-3.15-.55-4.22-1.65-1.06-1.1-1.59-2.52-1.59-4.26s.53-3.09,1.58-4.24c1.06-1.15,2.41-1.73,4.08-1.73,1.15,0,2.09.24,2.83.71v-4.73h3.38v15.71h-3.1,0ZM132.29,190.47c0,.82.24,1.5.73,2.04.49.54,1.12.82,1.89.82.81,0,1.45-.27,1.92-.82.47-.54.7-1.22.7-2.04s-.24-1.5-.72-2.05c-.48-.55-1.12-.83-1.9-.83s-1.43.27-1.91.82c-.48.54-.71,1.23-.71,2.06h0Z" style="fill:#fff;"/><path d="M152.8,191.61h-7.49c.07.54.31.97.71,1.29.41.31.93.47,1.57.47.96,0,1.73-.45,2.29-1.35l2.58,1.55c-.38.79-.97,1.46-1.77,2.02-.8.56-1.84.84-3.11.84-1.73,0-3.13-.53-4.18-1.58s-1.58-2.49-1.58-4.31.51-3.17,1.54-4.3c1.03-1.13,2.35-1.7,3.97-1.7,1.71,0,3.05.52,4.04,1.57.99,1.05,1.48,2.44,1.48,4.17,0,.5-.01.95-.04,1.33h0ZM147.33,187.42c-.56,0-1.01.17-1.35.52s-.54.76-.58,1.25h3.94c-.04-.5-.24-.92-.6-1.26-.36-.34-.83-.51-1.42-.51h0Z" style="fill:#fff;"/><path d="M162.97,189.07v7.16h-3.38v-7.16c0-.43-.1-.77-.32-1.02-.21-.25-.51-.38-.9-.38s-.67.12-.89.37c-.22.24-.32.58-.32,1.01v7.18h-3.38v-11.5h3.38v.73c.56-.57,1.34-.86,2.35-.86,1.15,0,2.01.35,2.6,1.05.75-.7,1.67-1.05,2.75-1.05,1.35,0,2.35.38,2.98,1.13.63.75.94,1.73.94,2.93v7.56h-3.38v-7.16c0-.43-.1-.77-.32-1.02-.21-.25-.51-.38-.9-.38s-.69.13-.9.4c-.21.27-.32.6-.32,1h0Z" style="fill:#fff;"/><path d="M174.59,199.99h-3.25l1.53-4.38-4.11-10.87h3.71l2.12,6.17,2.1-6.17h3.44l-5.54,15.26Z" style="fill:#fff;"/><path d="M104.53,182.79l-3.22,1.85,1.42,4.28h-2.83l1.42-4.28-3.17-1.82-4.51,13.55h3.81l1.33-4.03h5.07l1.35,4.03h4.11l-4.78-13.58Z" style="fill:#fff;"/><path d="M101.31,166.34l-9.77,5.46,9.77,5.46,7.99-4.47v6.29h1.78v-7.28M95.09,175.6v3.64l6.21,3.48,6.21-3.48v-3.64l-6.21,3.48-6.21-3.48Z" style="fill:#2e8a42;"/><path d="M91.35,204.28c25.25,0,48.11.09,64.65.24,8.27.07,14.96.16,19.59.26,2.31.05,4.11.1,5.33.15,1.22.05,1.86.11,1.86.16s-.64.11-1.86.16c-1.22.05-3.01.1-5.33.15-4.63.1-11.32.18-19.59.26-16.54.15-39.4.24-64.65.24s-48.05-.09-64.58-.24c-8.27-.07-14.96-.16-19.58-.26-2.31-.05-4.11-.1-5.33-.15-1.22-.05-1.86-.11-1.86-.16s.64-.11,1.86-.16c1.22-.05,3.01-.1,5.33-.15,4.62-.1,11.32-.18,19.58-.26,16.53-.15,39.37-.24,64.58-.24Z" style="fill:silver;"/><path d="M168.33,92.84c-.19-.89-.86-1.63-1.8-1.86-.45-.11-.92-.18-1.41-.22-.1-.35-.29-.67-.54-.95-.48-.53-1.17-.81-1.89-.78-.61.03-1.26.11-1.89.23-.11-.22-.26-.43-.43-.61-.48-.5-1.16-.77-1.86-.73-1.02.05-1.94.21-2.71.39-.21-.27-.48-.48-.77-.64.65-.38,1.07-.68,1.16-.76.55-.41.9-1.04.96-1.73,1.47-.87,2.58-1.85,2.76-2.01.48-.43.77-1.04.8-1.68,1.54-1.04,2.43-2.23,2.58-2.43.39-.53.54-1.19.43-1.83,1.31-1.18,2.18-2.4,2.33-2.62.39-.56.52-1.26.37-1.91.68-.79,1.1-1.46,1.19-1.6.37-.61.46-1.35.24-2.02.54-.67.9-1.24,1.02-1.46.39-.66.44-1.46.15-2.16-.02-.05-.04-.1-.06-.14,2.41-3.24,5-5.1,5.02-5.11.91-.64,1.27-1.82.86-2.86-.4-1.04-1.47-1.67-2.57-1.52-2.55.33-4.81,1.26-6.4,2.08-.06-.04-.13-.07-.19-.1-.68-.33-1.46-.32-2.14.02-.9.45-1.68,1.04-2.34,1.63-.67-.18-1.39-.06-1.98.33-.7.47-1.46,1.07-2.15,1.66-.05-.03-.1-.06-.15-.08-.62-.32-1.35-.35-2-.09-1.36.54-2.42,1.31-3.23,2.09-.13-.06-.27-.11-.41-.14-.63-.15-1.3-.05-1.85.29-1.2.74-2.12,1.66-2.81,2.53-.72-.24-1.54-.13-2.2.34-.95.7-1.68,1.62-2.22,2.51-.76-.09-1.54.18-2.09.8-.55.62-1.03,1.53-1.42,2.43-.12,0-.25,0-.38.02-.64.09-1.22.42-1.61.94-.06.08-.11.15-.17.23.11-.35.18-.59.2-.68.21-.79,0-1.63-.55-2.24,0,0,0,0-.01-.01.66-1.58.94-2.95.99-3.2.14-.71-.05-1.45-.51-2-.09-.11-.18-.2-.28-.29.59-2.03.45-3.61.42-3.86-.07-.61-.37-1.17-.83-1.57.33-2.12-.2-3.61-.3-3.86-.08-.19-.18-.38-.3-.54.64-2.06.44-3.54.4-3.78-.11-.71-.53-1.33-1.15-1.7-.14-.08-.28-.15-.43-.2.19-1.75.01-3.13-.02-3.38-.11-.74-.55-1.39-1.19-1.76-.17-.1-.34-.17-.52-.22-.11-1.59-.53-2.8-.61-3.03-.2-.56-.6-1.01-1.1-1.29-.14-1.67-.66-2.69-.76-2.86-.33-.6-.91-1.04-1.58-1.19-.1-.03-.21-.04-.31-.05-.69-4.14-1.88-9.96-2.06-10.82-.23-1.13-1.22-1.94-2.37-1.94s-2.14.81-2.37,1.94c-.18.86-1.36,6.68-2.05,10.82-.1.01-.21.03-.31.05-.67.15-1.25.59-1.58,1.19-.1.18-.62,1.19-.76,2.86-.5.28-.9.73-1.1,1.29-.08.22-.5,1.44-.61,3.03-.18.05-.36.13-.53.22-.65.37-1.09,1.02-1.2,1.76-.04.25-.21,1.63-.02,3.38-.15.05-.29.12-.43.2-.61.37-1.04.99-1.15,1.69-.04.23-.23,1.71.4,3.78-.12.17-.22.35-.3.55-.09.24-.63,1.74-.3,3.85-.46.4-.76.96-.83,1.57-.03.25-.17,1.83.42,3.86-.1.09-.2.19-.29.29-.46.56-.65,1.29-.51,2,.05.25.33,1.62.99,3.2,0,0,0,0-.01.01-.55.61-.76,1.45-.55,2.24.02.09.09.33.2.68-.06-.08-.11-.16-.17-.24-.39-.52-.97-.85-1.61-.94-.13-.02-.25-.02-.38-.02-.39-.9-.87-1.81-1.42-2.43-.54-.61-1.33-.88-2.08-.79-.54-.89-1.27-1.82-2.22-2.51-.65-.48-1.47-.58-2.2-.34-.69-.87-1.61-1.79-2.81-2.53-.55-.34-1.22-.44-1.85-.28-.14.04-.28.08-.41.14-.81-.78-1.87-1.55-3.23-2.09-.65-.26-1.37-.22-1.99.09-.05.03-.1.05-.16.09-.7-.59-1.46-1.19-2.16-1.66-.58-.39-1.3-.51-1.97-.33-.66-.59-1.44-1.18-2.34-1.63-.67-.33-1.46-.34-2.14-.02-.07.03-.13.07-.19.1-1.59-.82-3.86-1.75-6.41-2.08-1.1-.15-2.16.48-2.57,1.52-.41,1.04-.05,2.22.86,2.86.03.02,2.62,1.87,5.03,5.12-.02.05-.04.09-.06.14-.29.7-.24,1.5.15,2.16.13.22.48.79,1.02,1.46-.22.67-.14,1.41.24,2.02.08.14.5.81,1.19,1.6-.15.65-.02,1.35.37,1.91.15.22,1.02,1.44,2.33,2.62-.11.64.04,1.3.43,1.83.14.2,1.04,1.38,2.58,2.43.03.64.32,1.24.8,1.68.18.16,1.29,1.14,2.77,2.01.06.69.41,1.31.96,1.73.1.07.51.38,1.17.76-.3.15-.56.37-.77.64-.77-.19-1.69-.34-2.71-.39-.7-.03-1.37.23-1.86.73-.18.18-.32.39-.43.61-.62-.11-1.27-.2-1.89-.23-.72-.03-1.4.26-1.89.78-.25.27-.43.6-.54.95-.5.04-.97.11-1.41.22-.94.23-1.61.97-1.8,1.86-1.68.6-3.97,1.69-5.56,3.57-.66.78-.75,1.88-.25,2.77.5.88,1.51,1.35,2.51,1.19.01,0,1.39-.23,3.03-.23.03,0,.07,0,.1,0,.32.61.88,1.06,1.55,1.23.1.02.34.08.69.12.33.51.84.88,1.44,1.04.1.03.72.18,1.64.29.05.11.1.22.16.33.36.59.95,1.01,1.63,1.13.11.02,1.06.19,2.35.22.05.09.11.18.18.26.39.52.97.85,1.62.94.08.01,1.05.14,2.3.05,0,.01.02.03.03.04.41.55,1.03.9,1.71.97.07,0,.68.07,1.52.07.46,0,.9-.02,1.32-.05.3.3.68.52,1.1.64.27.07,1.74.43,3.78-.1.26.14.55.23.85.26.02,0,.04,0,.08,0-.15.3-.24.63-.25.98,0,.11,0,.22,0,.33-.53.47-1.07,1.05-1.57,1.75-.39.56-.53,1.25-.38,1.92.02.08.04.16.06.24-.35.47-.71,1.01-1.05,1.6-.33.58-.4,1.27-.21,1.9-.46.84-.97,1.89-1.4,3.07-.35.97-.03,2.04.76,2.69.8.65,1.94.72,2.82.18,1.63-.99,3.13-1.86,4.32-2.51.57.33,1.26.42,1.9.23.17-.05,1.09-.33,2.12-.98.67.18,1.38.05,1.95-.33.15-.1,1.06-.72,2.01-1.6.51.02,1.01-.12,1.44-.41.32-.22,1.44-1.01,2.48-2.11.52-.02,1.02-.2,1.43-.52.13-.1.57-.46,1.11-1.01l-.49,10.93c0,.1,0,.21,0,.3.06,1.46,1.06,3.15,3.63,3.15.12,0,.25,0,.36,0,.59-.03,1.35-.11,2.07-.52,1.05-.6,1.64-1.71,1.59-2.97l-.49-10.89c.55.55.98.91,1.12,1.01.41.33.91.51,1.43.52,1.04,1.1,2.15,1.89,2.48,2.11.43.29.94.43,1.44.41.95.88,1.86,1.49,2.01,1.6.57.38,1.28.51,1.95.33,1.03.64,1.95.93,2.12.98.64.19,1.33.1,1.9-.23,1.62.89,3.54,2.03,4.35,2.53.88.54,2,.47,2.8-.18.8-.65,1.1-1.74.75-2.71-.43-1.18-.94-2.23-1.4-3.07.19-.63.12-1.31-.21-1.9-.34-.6-.7-1.14-1.05-1.6.02-.08.05-.16.06-.24.15-.66,0-1.36-.38-1.92-.49-.7-1.04-1.28-1.57-1.75.01-.11.01-.22,0-.33-.02-.35-.1-.68-.25-.98.04,0,.06,0,.08,0,.3-.03.59-.12.85-.26,2.03.53,3.51.17,3.78.1.42-.11.8-.33,1.1-.63.42.03.86.05,1.32.05.84,0,1.46-.06,1.52-.07.68-.07,1.3-.42,1.71-.97,0-.01.02-.03.03-.04,1.25.09,2.22-.04,2.3-.05.64-.08,1.22-.42,1.62-.94.07-.09.13-.18.18-.27,1.29-.02,2.24-.2,2.35-.22.68-.13,1.27-.54,1.63-1.14.06-.11.12-.21.16-.33.92-.11,1.54-.26,1.64-.29.6-.15,1.11-.52,1.44-1.04.35-.05.59-.1.69-.13.67-.17,1.23-.62,1.55-1.23,1.65-.03,3.11.23,3.12.23,1,.17,2.01-.3,2.51-1.18.51-.88.41-1.99-.25-2.77-1.59-1.89-3.89-2.98-5.57-3.58Z" style="fill:#003c38;"/><path d="M165.72,94.62l.24-1.28c-1.64-.4-3.4,0-3.4,0l.24-1.88c-1.84.08-4.33.88-4.33.88l.16-2c-2.48.12-4.24,1-4.24,1l-.48-1.52c-2.08.48-3.89,2.24-3.89,2.24l.16-1.84c-2.44.36-4.33,2.12-4.33,2.12l-.04-.92,1.44-.92-1.08-.6c2.72-.4,4.89-1.84,4.89-1.84l-1-1c2.64-.56,4.69-2.08,4.69-2.08l-.92-.92c2.16-.6,4.48-2.68,4.48-2.68l-1.48-.76c2.8-.6,4.52-2.96,4.52-2.96l-1.72-.64c2.4-.8,4.44-3.76,4.44-3.76l-1.64-.28c1.8-.96,3.12-3.12,3.12-3.12l-2-.32c1.8-.68,3.24-3.12,3.24-3.12l-1.24-.32c3-5,7.04-7.85,7.04-7.85-4.28.56-7.69,3.08-7.69,3.08l-.28-1.32c-2.09,1.04-3.53,3.2-3.53,3.2l-.52-1.4c-1.84,1.24-4.28,3.6-4.28,3.6l-.48-1.88c-2.92,1.16-4.08,3.8-4.08,3.8l-1.04-1.76c-2.48,1.52-3.48,4.16-3.48,4.16l-1.36-1.4c-1.8,1.32-2.61,4.09-2.61,4.09l-1.32-1.12c-1,1.12-1.88,4.32-1.88,4.32l-1.4-1.08c-1.12,1.48-1.56,4.68-1.56,4.68l-1.28-1.28c-1.16,1.6-1.32,4.96-1.32,4.96l-1.08-1.08c-1.12,2.37-.88,5.25-.88,5.25l-1.12-1.32-.64,1.56-.96-.24c1.8-2,2.68-4.97,2.68-4.97l-1.6.24c1.84-2.24,2.52-5.52,2.52-5.52l-1.56.2c1.68-1.64,2.56-5.01,2.56-5.01l-2.28.36c1.96-1.96,2.68-5.66,2.68-5.66h-1.91c1.81-2.71,1.51-5.42,1.51-5.42l-2.01.8c2.01-3.11,1.03-5.62,1.03-5.62l-1.83.8c2.21-3.11,1.81-5.62,1.81-5.62l-2.61.9c1.51-2.71,1-6.22,1-6.22l-2.21.9c1.1-2.41,0-5.42,0-5.42l-1.71,1.61c1.11-3.41,0-5.42,0-5.42l-1.71,1.2c-.2-2.81-2.49-13.95-2.49-13.95,0,0-2.29,11.14-2.49,13.95l-1.71-1.2s-1.11,2.01,0,5.42l-1.71-1.61s-1.1,3.01,0,5.42l-2.21-.9s-.5,3.51,1.01,6.22l-2.61-.9s-.4,2.51,1.81,5.62l-1.84-.8s-.97,2.51,1.03,5.62l-2.01-.8s-.3,2.71,1.51,5.42h-1.91s.72,3.7,2.68,5.66l-2.28-.36s.88,3.36,2.56,5.01l-1.56-.2s.68,3.28,2.52,5.52l-1.6-.24s.88,2.97,2.68,4.97l-.96.24-.64-1.56-1.12,1.32s.24-2.88-.88-5.25l-1.08,1.08s-.16-3.36-1.32-4.96l-1.28,1.28s-.44-3.2-1.56-4.68l-1.4,1.08s-.88-3.2-1.88-4.32l-1.32,1.12s-.8-2.76-2.6-4.09l-1.36,1.4s-1-2.64-3.48-4.16l-1.04,1.76s-1.16-2.64-4.08-3.8l-.48,1.88s-2.44-2.36-4.28-3.6l-.52,1.4s-1.44-2.16-3.52-3.2l-.28,1.32s-3.4-2.53-7.69-3.08c0,0,4.05,2.84,7.05,7.85l-1.24.32s1.44,2.44,3.24,3.12l-2,.32s1.32,2.16,3.12,3.12l-1.64.28s2.04,2.96,4.44,3.76l-1.72.64s1.72,2.36,4.52,2.96l-1.48.76s2.32,2.08,4.48,2.68l-.92.92s2.04,1.53,4.68,2.08l-1,1s2.16,1.44,4.88,1.84l-1.08.6,1.44.92-.04.92s-1.88-1.76-4.32-2.12l.16,1.84s-1.8-1.76-3.88-2.24l-.48,1.52s-1.76-.88-4.24-1l.16,2s-2.48-.8-4.32-.88l.24,1.88s-1.76-.4-3.4,0l.24,1.28s-4.16.8-6.33,3.36c0,0,3.48-.6,6.37,0l-.68,1.04s1.08.28,2.6,0l-.48,1.16s1.72.44,3.72.32l-.44,1.4s2.12.4,4.2,0l-.2,1.4s2.48.32,4.28-.56l-.32,1.6s3.19.32,4.84-.6l-.51,1.32s2.24.6,4.72-1.12l-.44,1.22s2.56.3,4.8-.66l-.32.71s1.17.22,2.82,0c-.26.04-1.36.24-2.06.77l.76.84s-1.52,0-4.04,1.84l.96.84s-1.72.76-2.96,2.52l1.04.6s-1.28,1.2-2.28,2.96l.84.16s-1.36,1.92-2.28,4.44c.15-.09,4.99-3.05,6.89-3.8l-.04,1.24s1.92-.56,2.92-2l.48,1s2.04-1.36,3-2.8l.44.8s2.6-1.76,3.28-3.52l.48,1s3.44-2.72,3.52-5.88l.28,1.16s.95-1.07,1.6-2.47l-.86,19.08s0,.09,0,.13c.03.78.69.87,1.47.83.78-.03,1.38-.18,1.34-.96l-.86-19.08c.65,1.4,1.6,2.47,1.6,2.47l.28-1.16c.08,3.16,3.52,5.88,3.52,5.88l.48-1c.68,1.76,3.28,3.52,3.28,3.52l.44-.8c.96,1.44,3,2.8,3,2.8l.48-1c1,1.44,2.92,2,2.92,2l-.04-1.24c1.89.75,6.73,3.71,6.88,3.8-.92-2.52-2.28-4.44-2.28-4.44l.84-.16c-1-1.76-2.28-2.96-2.28-2.96l1.04-.6c-1.24-1.76-2.96-2.52-2.96-2.52l.96-.84c-2.52-1.84-4.04-1.84-4.04-1.84l.76-.84c-.7-.52-1.8-.73-2.07-.77,1.65.21,2.82,0,2.82,0l-.32-.71c2.24.96,4.8.66,4.8.66l-.44-1.22c2.48,1.72,4.72,1.12,4.72,1.12l-.52-1.32c1.65.92,4.84.6,4.84.6l-.32-1.6c1.8.88,4.28.56,4.28.56l-.2-1.4c2.08.4,4.2,0,4.2,0l-.44-1.4c2,.12,3.73-.32,3.73-.32l-.48-1.16c1.52.28,2.6,0,2.6,0l-.68-1.04c2.88-.6,6.36,0,6.36,0-2.16-2.56-6.33-3.36-6.33-3.36Z" style="fill:#2e8a42;"/><path d="M112.06,89.22c.01-.1.02-.2.03-.3.01-.2.03-.4.03-.6.01-.39,0-.77-.01-1.13-.07-1.45-.38-2.63-.67-3.42-.16-.39-.29-.69-.4-.89-.1-.2-.16-.3-.16-.3.44,1.85.47,3.69.35,5.39-.01.21-.03.42-.05.63h0c-.43-.37-.85-.73-1.28-1.1-1.76-1.53-3.47-3.01-5.11-4.44.03-.11.05-.22.07-.33.2-.88.32-1.73.4-2.51.17-1.57.12-2.9.02-3.81-.06-.46-.12-.82-.18-1.06-.05-.24-.08-.37-.08-.37,0,1.05-.1,2.07-.24,3.06-.14,1-.31,1.97-.5,2.9-.1.47-.2.93-.3,1.37,0,.01,0,.02,0,.03-2.05-1.77-3.99-3.44-5.78-4.98l.03-.1.04-.17c.03-.12.04-.23.06-.34.04-.22.07-.44.09-.66.04-.43.05-.85.05-1.25-.03-1.6-.37-2.89-.66-3.77-.08-.22-.14-.41-.2-.58-.07-.17-.13-.3-.17-.42-.1-.22-.15-.35-.15-.35.37,2.05.5,4.08.27,5.93-.04.34-.1.67-.17.99-1.92-1.64-3.65-3.12-5.15-4.4.03-.12.07-.24.1-.37.04-.17.07-.34.11-.51.07-.33.12-.66.16-.97.18-1.25.14-2.3.1-3.03-.08-.73-.14-1.14-.14-1.14-.23,1.65-.58,3.22-.94,4.68-.04.18-.1.36-.14.54l-.03.12c-.69-.58-1.32-1.12-1.88-1.59-2.05-1.72-3.22-2.71-3.22-2.71,1.48,1.46,2.97,2.91,4.47,4.34,0,0-.01,0-.02,0-.34-.01-.68-.06-1-.08-.33-.03-.64-.05-.94-.08-1.21-.11-2.22-.23-2.93-.3-.71-.08-1.12-.12-1.12-.12,1.49.68,3.09,1.12,4.62,1.37.38.06.76.12,1.13.15.19.02.37.03.56.04.27.02.53.03.79.05,1.63,1.55,3.26,3.06,4.88,4.54-.07.02-.14.04-.21.06-.41.12-.81.26-1.21.33-.4.09-.78.18-1.15.26-1.49.27-2.75.39-3.64.44-.89.03-1.41,0-1.41,0,.98.3,2.02.44,3.04.46.26,0,.51.02.77.01.26-.01.51-.03.76-.04.25-.02.51-.03.75-.06.25-.04.49-.08.73-.12.24-.04.48-.08.72-.12.24-.05.47-.12.7-.18.23-.06.45-.13.68-.19.1-.03.2-.06.3-.09,1.95,1.77,3.87,3.48,5.74,5.1-.71.27-1.41.46-2.06.61-1.47.31-2.75.38-3.64.4-.9.02-1.41-.03-1.41-.03.98.32,2.02.48,3.04.53,1.03.05,2.06-.03,3.04-.23.24-.06.49-.1.72-.18.24-.07.47-.14.7-.22.14-.06.29-.12.43-.17,2.28,1.98,4.47,3.82,6.5,5.5-.07.02-.14.04-.21.06-.74.23-1.46.38-2.14.5-1.35.23-2.5.28-3.31.28-.81,0-1.28-.05-1.28-.05.88.33,1.81.51,2.74.59.93.08,1.87.05,2.76-.09.44-.07.89-.15,1.3-.27.21-.06.42-.11.62-.18.11-.04.22-.07.33-.11l.05-.02c1.71,1.41,3.32,2.67,4.75,3.8,1.5,1.15,2.8,2.15,3.91,2.94.55.4,1.04.76,1.47,1.06.44.3.81.55,1.11.75.61.41.93.62.93.62-4.06-3.2-7.94-6.59-11.65-9.82l.02-.14Z" style="fill:#003c38;"/><path d="M112.92,97.13c-.05-.12-.1-.25-.16-.37-.06-.11-.12-.22-.18-.33-.12-.22-.24-.42-.38-.6-.51-.75-1.03-1.28-1.41-1.63-.38-.36-.62-.54-.62-.54.52,1.06,1.06,2.07,1.51,3.02.07.16.14.31.21.46-.95-.11-1.88-.22-2.81-.31-1.24-.12-2.46-.23-3.65-.32l-.02-.04c-.05-.12-.1-.23-.16-.34-.13-.2-.26-.4-.38-.58-.53-.69-1.08-1.15-1.48-1.45-.39-.3-.64-.43-.64-.43.6.94,1.19,1.86,1.61,2.72,0,.02.01.03.02.04-1.69-.12-3.32-.21-4.87-.28-.07-.1-.11-.16-.18-.25-.17-.26-.37-.47-.56-.68-.1-.1-.19-.2-.28-.3-.1-.09-.19-.18-.29-.27-.76-.7-1.46-1.17-1.97-1.49-.5-.31-.81-.46-.81-.46.87,1.03,1.76,2,2.52,2.94.09.12.18.23.28.35.03.03.05.07.08.1-.7-.03-1.39-.05-2.05-.07-1.32-.04-2.56-.06-3.71-.07l-.12-.07c-.25-.14-.56-.33-.64-.36-.53-.28-1.03-.56-1.52-.75-.48-.2-.93-.37-1.33-.52-.4-.14-.75-.24-1.05-.33-.29-.09-.52-.15-.68-.19-.16-.04-.24-.06-.24-.06.57.39,1.14.78,1.72,1.12.57.36,1.14.69,1.69,1.01.08.05.16.09.24.14-4.27,0-6.88.12-6.88.12,2.55.17,5.11.33,7.62.49-.05.08-.11.16-.16.23-.16.22-.31.44-.45.65-.59.83-1.12,1.5-1.53,1.94-.21.22-.38.39-.5.5-.12.11-.19.17-.19.17.67-.23,1.28-.63,1.82-1.07.54-.45,1.02-.95,1.44-1.46.1-.13.21-.25.3-.38l.07-.1.04-.05.07-.1c.06-.09.12-.17.17-.25,2.11.13,4.18.26,6.2.39-.1.42-.22.82-.35,1.19-.32.91-.69,1.64-1.01,2.13-.16.24-.3.43-.4.55-.1.13-.15.2-.15.2.61-.33,1.14-.8,1.57-1.34.43-.54.76-1.14,1.01-1.75.12-.3.22-.61.3-.92,1.73.11,3.42.22,5.04.33,0,.04,0,.09,0,.13-.03.42-.13.81-.25,1.18-.25.73-.59,1.32-.86,1.73-.12.21-.25.36-.32.47-.08.11-.12.17-.12.17.5-.27.97-.62,1.36-1.05.39-.42.71-.92.9-1.46.1-.27.17-.54.21-.82.01-.1.02-.19.02-.29,1.95.14,3.8.27,5.53.41.22.02.44.03.66.05-.19.26-.38.51-.58.73-.26.33-.54.6-.78.86-.26.23-.48.45-.67.61-.4.31-.64.51-.64.51,1.19-.23,2.27-.94,3.06-1.75.2-.2.38-.42.55-.64l.06-.08.08-.11s.02-.03.02-.04c2.98.25,5.48.52,7.33.72,2.2.27,3.46.43,3.46.43-3.57-.85-7.2-1.46-10.71-1.9-.02-.05-.04-.1-.05-.14Z" style="fill:#003c38;"/><path d="M117.69,103.65c-.12-.06-.25-.1-.37-.15-.5-.16-.98-.24-1.42-.28-.88-.06-1.6.04-2.09.14-.49.1-.76.2-.76.2,1.12.17,2.2.35,3.16.6.22.06.43.12.63.19-.99.81-1.93,1.6-2.81,2.36-.02,0-.04,0-.06-.01-.13-.02-.25-.05-.37-.06-.12,0-.23-.01-.35-.02-.11,0-.22-.01-.33-.01-.11,0-.21,0-.31.01-.82.03-1.48.16-1.95.28-.46.11-.71.21-.71.21,1.06.18,2.11.28,3.05.4.03,0,.07.01.1.02-.81.71-1.56,1.39-2.25,2.02-.14,0-.28,0-.41,0-.08,0-.15,0-.23,0-.15,0-.3,0-.44.03-.29.04-.56.08-.83.13-.26.06-.51.12-.75.18-.96.26-1.72.57-2.24.81-.52.24-.81.41-.81.41,1.3-.14,2.56-.33,3.74-.48.29-.05.58-.05.86-.09,0,0,.02,0,.02,0-2.02,1.89-3.22,3.12-3.22,3.12,1.36-.94,2.71-1.93,4-2.92.03.18.07.36.09.53.15.93.19,1.73.14,2.28,0,.14-.02.26-.04.37-.01.11-.03.2-.05.27-.04.15-.06.23-.06.23.42-.52.65-1.2.75-1.86.11-.66.11-1.32.06-1.94l-.02-.23-.02-.18s-.01-.08-.02-.11c.86-.68,1.7-1.36,2.51-2.02,0,.05.02.1.03.15.04.2.08.4.1.58.07.38.09.73.13,1.04,0,.31.03.59.03.83-.02.46-.01.74-.01.74.56-.95.74-2.11.66-3.15-.02-.26-.05-.52-.1-.76,0-.02-.02-.07-.03-.12.98-.82,1.9-1.62,2.76-2.38.04.19.08.37.1.55.07.4.1.77.14,1.11.01.33.04.63.04.88-.01.49,0,.79,0,.79.54-1.03.73-2.24.63-3.34,0-.14-.03-.28-.05-.41-.01-.1-.03-.16-.05-.28,3.31-2.97,5.43-5.14,5.43-5.14-2.09,1.45-4.11,2.99-5.99,4.49,0,0-.01,0-.02,0Z" style="fill:#003c38;"/><path d="M129.13,104.34c-.04.2-.05.31-.08.47-.02.24-.04.47-.04.69,0,.45.05.85.1,1.2.08.35.15.65.23.9.18.48.3.74.3.74-.01-1.16.1-2.24.28-3.22,0-.02.01-.05.02-.07.94.83,1.87,1.61,2.75,2.35-.01.04-.02.08-.02.1v.09s-.04.17-.04.17c-.02.12-.03.23-.04.34-.02.23-.03.44-.02.66,0,.42.06.8.11,1.13.08.33.15.62.24.85.19.45.31.69.31.69-.04-1.1.08-2.1.24-3.04.02-.1.04-.21.06-.31.89.73,1.73,1.4,2.51,2,0,0,0,0,0,0l-.03.2-.02.14c-.03.27-.04.53-.05.79-.02,1.01.15,1.87.37,2.42.05.14.11.26.16.36.05.1.1.19.15.25.09.13.14.19.14.19-.18-.64-.17-1.27-.13-1.89.04-.62.13-1.22.22-1.8v-.02c2.41,1.85,3.99,2.94,3.99,2.94-1.04-1.07-2.12-2.12-3.19-3.13.22.02.44.04.65.06.25.03.5.06.73.09,1.91.26,3.2.43,3.2.43-1.13-.65-2.36-1.12-3.58-1.38-.3-.08-.61-.1-.91-.15-.15-.02-.3-.04-.45-.04-.18,0-.36,0-.53-.01-.07,0-.13,0-.19,0-.77-.7-1.54-1.39-2.29-2.04.08-.01.16-.03.23-.04.1,0,.2-.02.29-.03.77-.1,1.43-.17,1.89-.23.46-.06.73-.1.73-.1-1.02-.36-2.09-.54-3.13-.51-.26.02-.51.02-.77.08-.06.01-.12.02-.17.03-.98-.84-1.94-1.63-2.84-2.35.37-.13.74-.24,1.09-.33.78-.18,1.47-.29,1.96-.36.49-.07.77-.11.77-.11-1.08-.37-2.25-.47-3.35-.3-.27.04-.54.11-.8.19-.13.05-.26.09-.38.14-.05.02-.09.04-.14.07-3.48-2.77-5.97-4.5-5.97-4.5,1.79,1.83,3.64,3.57,5.44,5.17Z" style="fill:#003c38;"/><path d="M136.08,90.08c.2.07.4.14.6.18.8.23,1.58.33,2.3.39,1.44.11,2.63-.05,3.44-.22.81-.17,1.25-.35,1.25-.35-.93.07-1.85.03-2.75-.03-.9-.07-1.77-.19-2.6-.36-.41-.09-.82-.18-1.21-.29-.12-.03-.24-.07-.35-.1.44-.37.89-.73,1.32-1.1,1.79-1.5,3.51-2.97,5.15-4.41.08.03.16.06.23.09.87.32,1.72.51,2.51.61,1.59.19,2.9.06,3.8-.1.9-.15,1.39-.33,1.39-.33-1.03.05-2.04,0-3.03-.09-.99-.09-1.94-.26-2.84-.5-.22-.07-.45-.12-.66-.19-.2-.07-.39-.13-.59-.2,2.05-1.79,3.96-3.51,5.72-5.11.05.02.1.03.15.05.22.06.44.12.66.18.44.12.86.24,1.28.29.42.07.82.13,1.21.19,1.57.15,2.88.06,3.78-.06.9-.14,1.39-.31,1.39-.31-1.02.03-2.03-.03-3.02-.16-.25-.03-.49-.05-.73-.09-.24-.04-.48-.08-.72-.12-.24-.04-.48-.07-.71-.12-.23-.05-.46-.11-.69-.16-.23-.05-.46-.1-.68-.15-.23-.05-.44-.13-.66-.19-.14-.04-.28-.08-.42-.12,1.83-1.67,3.46-3.2,4.87-4.52h.23c.15-.03.3-.04.45-.05.18-.01.37-.03.54-.05.36-.03.7-.09,1.03-.14.33-.05.65-.11.95-.18,1.22-.25,2.2-.57,2.88-.8.68-.24,1.05-.42,1.05-.42-1.62.16-3.22.32-4.74.47-.38.04-.74.07-1.1.1-.07,0-.13,0-.2.01.53-.51,1.03-.98,1.47-1.41,1.93-1.86,3.02-2.93,3.02-2.93-1.71,1.42-3.42,2.85-5.11,4.28-.04-.13-.07-.27-.11-.4-.09-.31-.16-.62-.24-.91-.3-1.17-.47-2.18-.6-2.89-.09-.71-.16-1.13-.16-1.13-.31,1.64-.23,3.34.05,4.88.03.19.08.38.12.57l.03.14.05.19c.02.07.04.14.06.21-1.74,1.48-3.46,2.95-5.15,4.4,0-.02,0-.04-.01-.06-.04-.2-.08-.4-.11-.6-.06-.39-.1-.78-.13-1.16-.1-1.5.03-2.79.14-3.68.03-.22.06-.42.09-.6.03-.17.06-.32.08-.44.04-.24.06-.37.06-.37-.88,1.88-1.32,4.02-1.18,6.02.04.5.1.99.22,1.48l.03.1h0c-1.99,1.72-3.92,3.39-5.77,5.01-.19-.79-.35-1.54-.49-2.25-.29-1.51-.45-2.78-.52-3.69-.02-.45-.04-.81-.03-1.05,0-.25,0-.38,0-.38-.27,1.01-.38,2.07-.38,3.1,0,1.04.08,2.05.23,3.02.08.48.16.96.26,1.42.03.11.05.23.08.34.02.07.03.11.04.18-2.27,1.98-4.42,3.85-6.4,5.57-.01-.13-.03-.25-.04-.38-.04-.37-.06-.72-.08-1.07-.06-1.37.03-2.53.16-3.34.07-.4.13-.72.18-.94.05-.22.08-.33.08-.33-.48.82-.8,1.74-1,2.67-.2.93-.28,1.86-.26,2.76,0,.23.01.45.03.67,0,.11.01.22.03.33l.02.17.03.21c-1.67,1.45-3.22,2.78-4.59,3.97-1.44,1.21-2.68,2.29-3.74,3.14-.52.43-.99.81-1.4,1.15-.41.32-.77.6-1.05.83-.57.45-.88.69-.88.69,4.33-2.83,8.38-6.03,12.19-9.16.06.02.13.05.19.07Z" style="fill:#003c38;"/><path d="M157.47,98.52c-.41-.52-.79-1.06-1.16-1.57-.09-.13-.18-.26-.27-.39l-.02-.03c4.71-.29,7.62-.47,7.62-.47-2.29-.1-4.59-.14-6.87-.15.24-.15.48-.3.71-.43.44-.26.85-.51,1.2-.73.36-.21.67-.41.93-.57.25-.17.45-.3.59-.39l.21-.14c-.68.14-1.34.35-1.99.56-.64.24-1.26.48-1.85.77-.29.15-.58.3-.85.45l-.21.12c-.11.07-.23.13-.34.2-.1.06-.19.11-.28.17-1.97.02-3.92.07-5.81.15.07-.09.15-.19.22-.28.08-.1.16-.21.23-.3.08-.1.16-.19.24-.29.63-.75,1.19-1.37,1.57-1.81.39-.44.61-.7.61-.7-1.21.6-2.31,1.4-3.21,2.34-.11.12-.22.24-.32.36-.11.12-.21.24-.3.37-.08.12-.17.24-.25.36-1.68.08-3.32.18-4.9.3.07-.15.15-.3.21-.45.38-.7.76-1.27,1.01-1.68.27-.41.42-.64.42-.64-.98.56-1.83,1.34-2.41,2.29-.12.17-.2.36-.28.56-2.04.16-3.97.35-5.76.56-.24.03-.47.05-.71.08,0,0,0,0,0,0,.05-.1.1-.21.14-.31.09-.2.18-.4.28-.59.37-.77.72-1.4.95-1.86.24-.45.37-.72.37-.72-.94.72-1.74,1.61-2.32,2.59-.14.25-.29.49-.38.76l-.08.2s-.02.05-.03.08c-2.97.38-5.47.82-7.29,1.16-1.09.21-1.94.41-2.52.53-.58.13-.89.2-.89.2,3.65-.47,7.29-.82,10.81-1.12l.07.1c.33.42.66.78,1.01,1.08.34.31.7.54,1.01.74.33.18.62.33.86.43.51.17.79.24.79.24-.96-.72-1.71-1.55-2.37-2.36-.09-.11-.18-.22-.26-.33.93-.08,1.85-.15,2.75-.22,1.16-.09,2.29-.18,3.41-.26,0,.05,0,.11,0,.16.07.53.24,1,.45,1.4.43.8.98,1.31,1.38,1.61.19.16.37.25.48.33.12.07.18.11.18.11-.64-.95-1.16-1.88-1.4-2.79-.06-.22-.1-.45-.13-.67,0-.07-.01-.15-.02-.22,1.75-.13,3.44-.24,5.04-.35.15.54.34,1.03.56,1.47.48.94,1.07,1.62,1.53,2.01.24.2.43.33.57.42.14.08.21.13.21.13-.86-1.07-1.35-2.26-1.72-3.4-.07-.23-.13-.46-.19-.69.83-.05,1.65-.11,2.43-.16,1.34-.08,2.6-.16,3.76-.23.09.13.18.25.26.37.09.12.18.23.27.34.18.22.36.43.54.63.72.78,1.43,1.34,1.97,1.66.27.16.49.27.64.33.15.06.24.09.24.09-.53-.47-.96-.99-1.38-1.51Z" style="fill:#003c38;"/><path d="M120.65,71.34c.23.16.48.29.72.42.12.06.24.13.36.19.13.05.25.11.38.16.25.11.49.23.75.3.12.04.25.08.37.12.01,2.28.03,4.46.05,6.53-.1-.02-.21-.04-.31-.06-.82-.19-1.57-.49-2.24-.83-.67-.34-1.24-.73-1.73-1.11-.49-.37-.9-.74-1.22-1.05-.32-.31-.56-.58-.73-.76-.16-.18-.24-.29-.24-.29.44.94,1.07,1.8,1.8,2.55.73.75,1.59,1.38,2.51,1.83.46.22.94.4,1.42.53.24.08.48.11.72.16.01,0,.02,0,.03,0,.03,2.44.06,4.71.1,6.77-.02,0-.04-.02-.06-.03-.16-.08-.32-.16-.47-.24-.3-.17-.6-.33-.87-.51-1.1-.7-1.93-1.42-2.5-1.95-.57-.53-.87-.86-.87-.86.81,1.6,2.08,2.99,3.52,3.95.18.13.37.23.55.34.09.05.18.11.28.15.11.05.22.11.33.16l.09.04c.13,6.97.28,11.28.28,11.28.13-3.79.24-7.58.31-11.3l.08-.06.19-.15c.16-.13.31-.25.46-.38.59-.51,1.13-1.02,1.59-1.53.93-1.01,1.59-1.95,1.98-2.65.19-.35.33-.63.41-.83.08-.2.13-.3.13-.3-.55.72-1.17,1.36-1.79,1.97-.62.61-1.26,1.18-1.88,1.72-.31.27-.62.53-.92.79-.08.06-.15.12-.23.18.04-2.24.07-4.46.1-6.64l.08-.04c.84-.44,1.54-.98,2.14-1.52,1.2-1.09,1.97-2.2,2.44-3,.12-.2.22-.38.31-.54.08-.16.15-.3.2-.41.11-.22.17-.34.17-.34-1.31,1.65-2.78,3.1-4.34,4.15-.32.22-.65.42-.98.6.02-2.18.03-4.31.04-6.39l.12-.07c.11-.07.22-.13.33-.2.21-.13.42-.27.61-.41.39-.28.76-.57,1.09-.87,1.35-1.17,2.24-2.38,2.79-3.25.13-.22.25-.42.35-.59.09-.18.17-.33.23-.45.12-.25.19-.38.19-.38-1.43,1.85-3.13,3.4-4.87,4.59-.28.19-.56.36-.84.53,0-2.15,0-4.24,0-6.26.11-.05.22-.1.33-.16.22-.11.43-.24.62-.37.4-.25.75-.54,1.08-.82,1.29-1.16,2.07-2.37,2.56-3.22.25-.43.42-.78.53-1.02.11-.24.18-.36.18-.36-1.36,1.77-2.86,3.4-4.53,4.47-.21.13-.42.26-.63.37-.04.03-.09.05-.14.07-.01-2.27-.03-4.45-.05-6.5l.1-.06c.05-.04.11-.07.16-.1.1-.07.21-.14.31-.21.2-.14.39-.29.58-.44.37-.31.71-.61,1.01-.93,1.23-1.27,1.95-2.58,2.31-3.53.08-.24.16-.45.23-.64.06-.19.09-.35.13-.48.06-.26.1-.4.1-.4-.94,2.1-2.44,3.79-4.05,5.05-.29.23-.58.43-.88.63-.04-2.95-.08-5.63-.13-7.97.05-.04.1-.07.14-.11l.18-.17c.06-.05.12-.12.14-.14.49-.51.83-1.08,1.1-1.62.53-1.09.7-2.07.77-2.75.04-.34.04-.61.04-.79,0-.18,0-.28,0-.28-.48,1.48-1.09,2.83-1.88,3.92-.17.23-.34.44-.52.64-.12-5.56-.24-8.88-.24-8.88-.11,2.95-.19,5.92-.26,8.86-.09-.09-.18-.19-.26-.29-.19-.22-.36-.44-.53-.66-.65-.88-1.1-1.7-1.4-2.29-.3-.59-.45-.95-.45-.95.11,1.52.66,3.03,1.51,4.26.11.15.22.3.34.44l.18.21.09.1s.03.03.05.06l.08.08c.11.1.23.21.34.31l.02.02c-.06,2.71-.1,5.4-.13,8.04-.11-.06-.22-.13-.32-.2-.19-.13-.39-.24-.57-.39-.18-.14-.36-.27-.53-.41-.33-.29-.66-.57-.94-.86-1.17-1.16-1.99-2.31-2.53-3.13-.27-.41-.47-.75-.6-.98-.13-.23-.2-.35-.2-.35.62,2.17,1.82,4.22,3.4,5.75l.3.29c.11.09.21.17.32.26.1.09.21.17.31.26.11.08.22.16.33.23.22.15.43.31.67.43.12.07.23.13.35.19-.02,2.22-.04,4.4-.05,6.54-.18-.07-.36-.15-.53-.23-.81-.38-1.55-.85-2.18-1.35-1.27-.99-2.18-2.02-2.79-2.76-.3-.37-.53-.67-.68-.88-.15-.21-.23-.33-.23-.33.81,2.05,2.19,3.92,3.91,5.22.22.16.43.33.66.46.23.13.45.29.69.4.24.11.47.23.7.33.12.05.24.09.36.13.03.01.06.02.08.03,0,2.19,0,4.33,0,6.4-.18-.06-.36-.12-.53-.2-.89-.34-1.69-.79-2.39-1.24-.71-.45-1.32-.93-1.84-1.39-.53-.45-.96-.88-1.3-1.24-.35-.36-.6-.66-.78-.87-.17-.21-.26-.33-.26-.33.49,1.04,1.16,2.01,1.93,2.87.77.86,1.65,1.62,2.6,2.21Z" style="fill:#003c38;"/><polygon points="88.2 138.27 89.45 140.55 91.72 141.79 89.45 143.04 88.2 145.31 86.96 143.04 84.68 141.79 86.96 140.55 88.2 138.27" style="fill:#fff;"/><polygon points="97.09 138.13 98.34 140.4 100.61 141.65 98.34 142.89 97.09 145.17 95.85 142.89 93.57 141.65 95.85 140.4 97.09 138.13" style="fill:#fff;"/></g></svg>